<?xml version="1.0" encoding="utf-8"?>
<!-- Generator: Adobe Illustrator 15.1.0, SVG Export Plug-In . SVG Version: 6.00 Build 0)  -->
<!DOCTYPE svg PUBLIC "-//W3C//DTD SVG 1.1//EN" "http://www.w3.org/Graphics/SVG/1.1/DTD/svg11.dtd">
<svg version="1.1" id="Logos" xmlns="http://www.w3.org/2000/svg" xmlns:xlink="http://www.w3.org/1999/xlink" x="0px" y="0px"
	 width="179px" height="48px" viewBox="0 0 179 48" enable-background="new 0 0 179 48" xml:space="preserve">
<g id="Artisan_xAE_">
	<polyline fill="#735563" points="35.981,23.874 35.989,23.87 35.988,23.869 35.981,23.874 	"/>
	<path fill="#735563" d="M96.085,20.466c-0.497-0.281-1.003-0.427-1.5-0.427c-1.057,0-2.207,0.654-3.525,1.995l-0.01,0.007
		l-0.007,0.007c-1.204,1.293-1.694,2.087-1.694,2.762c0,0.372,0.155,1.058,1.202,1.427l0.564,0.198l0.415-0.425l0.144-0.133
		l0.013-0.014l0.012-0.016c0.715-0.777,1.768-1.713,3.129-2.765l1.062-0.8l0.053-0.042l0.05-0.045
		c0.002-0.002,0.042-0.041,0.157-0.119l1.288-0.855L96.085,20.466z"/>
	<path fill="#735563" d="M177.622,10.557c-1.297-3.98-3.392-7.014-6.913-8.808C168.432,0.588,165.565,0,162.2,0
		c-4.533,0-8.2,0.938-13.378,2.946l-1.059,0.413c-11.633,4.521-26.815,11.64-49.388,11.977c-1.177,0.017-2.328,0.025-3.406,0.025
		c-4.262,0-7.9-0.133-11.065-0.41l1.763-2.753l0.521-0.886l0.65-1.114h-0.011c1.63-2.761,0.767-1.42,1.072-1.921l0.83-1.334
		l1.117-1.785c0,0-0.848-0.358-2.584-0.047c-0.937,0.167-2.128,0.901-2.128,0.901l-0.229,0.373l-0.298,0.503l-0.666,1.103
		L83.567,8.65c-0.165,0.274,0.468-0.766-0.379,0.643l-0.002-0.001l-0.378,0.631c-0.378,0.643-2.264,3.971-2.725,4.733
		c-1.336-0.192-2.736-0.438-3.884-0.676c-1.622-0.392-4.43-1.388-5.227-1.674c-1.987-0.715-3.756-1.9-5.053-2.852l-0.607-0.441
		l-0.57,0.487c-0.138,0.114-0.215,0.184-0.264,0.236c-0.113,0.07-0.199,0.156-0.28,0.257c-0.375,0.335-0.615,0.679-0.718,1.05
		c-0.159,0.533-0.006,1.081,0.39,1.511l0.04,0.043l0.046,0.038c0.271,0.233,0.703,0.476,1.341,0.768
		c1.501,0.76,4.274,2.13,13.246,3.866c-2.87,4.88-5.503,9.249-7.803,13.692l-0.905,1.223l-0.967,1.11
		c-1.426,1.578-2.438,2.39-3.707,3.591c-1.741,1.671-3.23,2.906-4.421,3.677c-1.021,0.653-1.973,0.986-2.831,0.986
		c-0.565,0-0.998-0.182-1.354-0.568l-0.017-0.005l-0.015-0.016c-0.366-0.378-0.551-0.858-0.551-1.479
		c0-1.757,1.083-3.989,3.236-6.641l1.146-1.439c0.35-0.372,0.536-0.837,0.536-1.336c0-0.472-0.165-0.894-0.475-1.204l-0.028-0.027
		l-0.03-0.025c-0.327-0.276-0.742-0.423-1.22-0.423c-0.353,0-0.828,0.135-2.229,0.835c-0.774,0.391-1.508,0.651-2.18,0.788
		c0.779-1.15,1.139-2.002,1.139-2.689c0-1.129-0.7-1.846-1.786-1.846c-0.888,0-1.711,0.496-2.435,1.477
		c-0.681,0.879-1.026,1.844-1.026,2.884c0,0.349,0.068,0.697,0.198,1.047v0.002l-0.034,0.043c-0.245,0.319-0.704,0.9-0.862,1.075
		l-0.02,0.021l-0.011,0.025c-1.55,1.926-3.026,3.629-4.412,5.073c-1.411,1.456-2.762,2.729-4.029,3.774
		c-3.049,2.56-4.784,3.098-5.69,3.098c-0.706,0-1.202-0.284-1.614-0.926l-0.006-0.008l-0.005-0.007
		c-0.492-0.758-0.749-1.788-0.749-3.069c0-1.439,0.32-3.181,0.965-5.171c0.583-1.946,1.525-4.27,2.797-6.903l0.495-1.005
		c0.084-0.175,0.16-0.315,0.222-0.427c1.169,0.048,2.396,0.198,3.647,0.431c1.296,0.261,2.726,0.67,4.23,1.231l0.704,0.265
		l0.42-0.628c0.086-0.137,0.147-0.226,0.191-0.303c0.079-0.093,0.147-0.208,0.193-0.317c0.274-0.431,0.405-0.819,0.405-1.209
		c0-0.555-0.286-1.045-0.79-1.35l-0.049-0.03l-0.05-0.019c-0.332-0.153-0.808-0.269-1.505-0.373
		c-1.844-0.358-3.762-0.605-5.718-0.738c0.907-1.586,1.804-3.055,2.668-4.372c1.077-1.706,2.702-4.067,4.83-7.035
		c0.201-0.265,0.389-0.523,0.561-0.761c0.163-0.226,0.271-0.381,0.341-0.467l0.008-0.013l0.008-0.01l1.266-1.808
		c0.964-1.35,1.599-2.29,1.949-2.873c0.577-0.986,0.837-1.735,0.837-2.365c0-0.589-0.202-1.098-0.572-1.473l-0.018-0.019
		l-0.02-0.018C51,1.862,50.459,1.679,49.795,1.679c-1.795,0-4.517,1.425-8.579,4.48c-1.87,1.424-3.812,3.081-5.775,4.926
		c-1.817,1.731-4.424,4.426-7.748,8.02c-1.223,1.288-2.098,2.242-2.674,2.908l-2.517,2.919c-0.114,0.111-0.21,0.21-0.299,0.31
		c-0.041,0.017-0.097,0.035-0.163,0.056c-0.18,0.049-0.319,0.096-0.426,0.13c-0.112,0.037-0.252,0.071-0.395,0.121
		c-0.138,0.051-0.365,0.125-0.675,0.24c-3.447,1.108-6.783,2.661-9.912,4.612c-1.502,0.938-2.932,1.967-4.247,3.064
		c-1.312,1.093-2.444,2.194-3.344,3.261C1.026,39.056,0,41.244,0,43.238c0,0.962,0.275,1.749,0.827,2.353
		c0.385,0.479,1.086,1.036,2.298,1.036c1.226,0,2.543-0.464,4.032-1.424c1.324-0.862,2.923-2.234,4.754-4.08
		c1.77-1.804,3.908-4.21,6.343-7.157c0.153-0.178,0.379-0.438,0.661-0.766l0.014-0.015l0.014-0.018
		c0.091-0.105,0.285-0.346,0.586-0.712c0.549-0.614,0.947-1.098,1.236-1.475c0.399-0.512,0.565-0.687,0.618-0.748l0.024-0.024
		l0.023-0.026l1.135-1.303l0.008-0.008l0.008-0.01l0.947-1.135c0.065-0.067,0.116-0.128,0.168-0.175
		c1.123-0.317,2.687-0.593,4.67-0.836c1.91-0.235,3.644-0.372,5.168-0.413c-3.172,6.023-4.785,11.016-4.785,14.823
		c0,1.908,0.447,3.517,1.342,4.795C31.06,47.299,32.303,48,33.782,48c2.375,0,5.366-1.589,9.135-4.854
		c1.354-1.199,2.993-2.81,4.889-4.779c1.633-1.77,4.093-4.773,4.961-5.843c0.398,0.093,0.784,0.132,1.147,0.132
		c0.31,0,0.648-0.034,1.029-0.111c-2.048,2.851-3.045,5.299-3.045,7.439c0,1.395,0.448,2.562,1.347,3.449
		c0.897,0.896,2.056,1.356,3.45,1.356c1.946,0,4.127-0.901,6.466-2.674c1.289-0.962,2.812-2.351,4.557-4.112
		c-0.109,0.605-0.175,1.176-0.175,1.751c0,1.421,0.439,2.604,1.3,3.49c0.852,0.934,1.97,1.402,3.339,1.402
		c2.562,0,5.894-1.959,10.114-5.984c-0.204,0.845-0.313,1.624-0.313,2.359c0,1.016,0.31,1.874,0.909,2.545
		c0.606,0.688,1.465,1.056,2.486,1.056c1.045,0,2.302-0.416,3.842-1.259c1.477-0.829,3.096-1.985,4.809-3.428
		c1.495-1.261,3.261-2.956,5.265-5.024c0.522-0.549,2.262-2.502,2.431-2.692c0.888,1.412,1.225,2.152,1.351,2.536
		c0.215,0.643,0.319,1.357,0.319,2.148c0,1.228-0.331,2.317-1.01,3.324c-0.595,0.896-1.348,1.473-2.295,1.775
		c-0.73-0.129-1.753-0.396-3.023-0.812c-0.825-0.259-1.36-0.382-1.73-0.382c-1.109,0-1.823,0.683-1.823,1.725
		c0,0.542,0.272,1.331,1.55,1.929c0.786,0.349,1.735,0.522,2.852,0.522c0.624,0,3.655-0.049,7.063-1.19
		c1.227-0.4,2.463-0.998,3.663-1.771c0.696-0.447,1.424-0.971,2.17-1.566c-0.006,0.11-0.009,0.219-0.009,0.335
		c0,1.18,0.357,2.138,1.062,2.854c0.674,0.756,1.598,1.142,2.731,1.142c2.359,0,5.083-1.487,8.271-4.522c0,0.099,0,0.192,0,0.287
		c0,1.175,0.328,2.184,0.973,3.005c0.664,0.845,1.597,1.291,2.689,1.291c0.96,0,2.104-0.399,3.496-1.241
		c1.25-0.733,2.729-1.883,4.373-3.394c0.459-0.421,0.905-0.84,1.355-1.274c-0.466,1.33-0.694,2.373-0.694,3.154
		c0,1.846,1.14,1.989,1.488,1.989c0.581,0,1.149-0.406,2.196-1.536c2.234-2.347,5.598-4.904,9.992-7.623
		c1.933-1.221,2.743-1.471,3.042-1.521v0.016c0,0.104-0.011,0.377-0.143,0.932c-0.358,1.518-0.642,2.824-0.844,3.877
		c-0.098,0.505-0.149,1.116-0.149,1.859c0,1.074,0.303,1.973,0.904,2.659c0.619,0.718,1.618,1.319,2.596,1.363
		c2.522,0.101,4.404-0.939,6.264-1.95c1.399-0.762,3.797-2.419,5.479-3.687c2.205-1.612,5.801-4.923,7.52-7.42
		C177.595,24.959,179.472,16.223,177.622,10.557 M12.558,36.626c-4.467,5.178-6.851,6.269-8.061,6.269
		c-0.627,0-0.788-0.172-0.788-0.8c0-1.239,0.714-2.707,2.121-4.383c1.49-1.784,3.485-3.473,5.934-4.997
		c1.911-1.229,3.763-2.239,5.52-3.024c0.62-0.284,1.255-0.553,1.886-0.793L12.558,36.626z M26.458,24.258
		c1.283-1.485,2.375-2.698,3.273-3.61l0.007-0.004l0.008-0.007c2.705-2.862,4.626-4.849,5.7-5.909
		c3.174-3.169,6.3-5.851,9.304-7.976c2.096-1.476,3.16-1.967,3.669-2.128c-0.141,0.258-0.393,0.645-0.812,1.217l-2.273,2.903
		c-3.762,4.785-6.761,9.012-8.911,12.556l-1.203,2.022l-0.086,0.004C32.065,23.477,29.16,23.787,26.458,24.258 M163.644,35.879
		c-0.35,0.266-0.704,0.537-1.055,0.788c-0.41,0.308-0.83,0.612-1.233,0.896c-3.606,2.546-5.603,3.052-5.981,3.052
		c-0.21,0-0.34-0.065-0.473-0.226c-0.171-0.21-0.256-0.479-0.256-0.838c0-0.433,0.114-1.504,0.681-4.157
		c0.444-2.046,0.49-2.739,0.49-3.084c0-1.446-0.837-2.351-2.184-2.351c-0.559,0-1.276,0.181-2.259,0.571h-0.019l-0.021,0.006
		c-1.029,0.465-2.036,0.976-3.001,1.523c-1.262,0.728-2.48,1.479-3.611,2.251c-1.146,0.775-2.652,1.868-4.465,3.24
		c0.071-0.164,0.161-0.344,0.253-0.54l0.006-0.009l0.002-0.008c0.969-2.078,2.323-4.536,4.034-7.303l1.196-1.931l-0.01,0.002
		l0.025-0.03c0,0-0.825-0.351-2.517-0.049c-0.905,0.163-2.271,0.842-2.271,0.842l-0.212,0.367l-0.3,0.487l-0.65,1.15h0.002
		c-0.247,0.395-0.5,0.808-0.746,1.221c-0.147,0.163-0.312,0.339-0.49,0.526l-0.008,0.009l-0.006,0.009l-0.79,0.93
		c-1.472,1.599-3.133,3.228-4.951,4.845c-3.257,2.854-4.678,3.275-5.234,3.275c-0.325,0-0.459-0.112-0.55-0.232l-0.019-0.023
		l-0.021-0.023c-0.177-0.201-0.272-0.519-0.272-0.951c0-1.749,0.781-3.936,2.312-6.472l0.355-0.595c0,0,0.532-1.122-1.188-1.551
		c-1.67-0.426-2.331,0.697-2.331,0.697l-0.142,0.248c-1.466,2.512-3.123,4.61-4.939,6.233c-1.686,1.505-3.156,2.304-4.256,2.304
		c-0.486,0-0.848-0.139-1.145-0.427l-0.021-0.025l-0.023-0.022c-0.177-0.152-0.414-0.424-0.414-1.093
		c0-0.622,0.266-1.455,0.796-2.474c0.546-1.07,1.315-2.169,2.282-3.266c1.353-1.535,3.041-2.835,5.027-3.867
		c1.911-1.02,3.675-1.54,5.251-1.54c1.01,0,1.765,0.166,2.253,0.479c0.467,0.22,1.916,1.245,0.846,2.533
		c-0.253,0.229-0.518,0.821-0.205,1.258c0.473,0.667,1.17,0.599,1.479,0.321c1.326-1.148,1.966-2.373,1.902-3.556
		c-0.06-1.282-0.543-2.311-1.573-2.974c-0.916-0.604-2.184-0.892-3.862-0.892c-1.562,0-3.358,0.392-5.339,1.169
		c-1.92,0.742-3.797,1.787-5.577,3.101c-1.335,0.976-2.587,2.112-3.704,3.392c-0.521,0.58-1.002,1.195-1.425,1.806
		c-0.694,0.714-1.371,1.367-2.007,1.924l-0.008,0.008l-0.008,0.007c-1.487,1.385-3.006,2.546-4.517,3.441
		c0.546-0.99,0.82-2.09,0.82-3.284c0-1.215-0.238-2.296-0.702-3.234c-0.479-0.922-1.287-1.998-2.489-3.289
		c-0.224-0.262-0.415-0.471-0.572-0.649c0.807-1.034,1.213-2.026,1.213-2.972c0-1.444-0.956-1.954-1.787-1.954
		c-0.539,0-1.334,0.209-2.036,1.191c-0.519,0.699-0.779,1.479-0.779,2.339c0,0.397,0.073,0.865,0.23,1.397
		c-0.067,0.075-0.142,0.167-0.22,0.257c-0.097,0.124-0.198,0.25-0.311,0.351l-0.021,0.023l-0.02,0.024l-0.354,0.406
		c-0.407,0.469-1.162,1.331-1.244,1.424c-1.376,1.528-2.931,3.063-4.618,4.548c-1.554,1.381-3.009,2.474-4.338,3.247
		c-1.456,0.863-2.275,1.045-2.7,1.045c-0.281,0-0.497,0-0.497-0.837c0-1.023,0.314-2.261,0.924-3.677
		c0.631-1.438,1.739-3.424,3.309-5.89l0.327-0.493l1.031-1.542c0,0-0.882-0.336-2.62-0.024c-0.928,0.168-2.098,0.699-2.098,0.699
		l-0.181,0.271c-0.404,0.567-0.795,1.157-1.16,1.741c-0.05,0.057-0.088,0.113-0.134,0.174l-0.584,0.642
		c-1.264,1.377-2.431,2.582-3.441,3.57c-1.035,1.014-2.018,1.922-2.934,2.709c-2.82,2.355-4.537,2.85-5.486,2.85
		c-0.63,0-0.922-0.248-1.087-0.44c-0.301-0.34-0.444-0.8-0.444-1.424c0-1.709,0.998-4.448,2.968-8.155l0.293-0.525l0.614-1.12
		c0.608-1.09,4.373-7.734,6.961-12.142c3.267,0.271,7.113,0.406,11.728,0.406c1.342,0,2.794-0.014,4.304-0.034
		c22.294-0.331,37.812-6.455,50.764-11.493l1.06-0.41c3.753-1.382,7.013-2.353,10.24-2.354c2.554,0,4.751,0.361,6.917,1.468
		c2.839,1.445,4.724,3.857,5.598,7.169C175.911,23.385,168.788,31.921,163.644,35.879"/>
	<path fill="#735563" d="M166.3,41.429v-0.013c0-1.261,1.022-2.337,2.323-2.337c1.294,0,2.308,1.062,2.308,2.323v0.014
		c0,1.262-1.027,2.339-2.318,2.339C167.309,43.755,166.3,42.691,166.3,41.429 M170.659,41.416v-0.014
		c0-1.126-0.874-2.063-2.036-2.063c-1.174,0-2.052,0.944-2.052,2.077v0.013c0,1.128,0.876,2.065,2.041,2.065
		C169.779,43.494,170.659,42.548,170.659,41.416 M167.536,40.115h1.2c0.441,0,0.718,0.112,0.89,0.286
		c0.146,0.146,0.226,0.332,0.226,0.582v0.014c0,0.352-0.186,0.604-0.483,0.744l0.568,0.836h-0.927l-0.48-0.703h-0.013h-0.159v0.703
		h-0.821V40.115z M168.709,41.29c0.199,0,0.318-0.086,0.318-0.238v-0.015c0-0.152-0.125-0.231-0.311-0.231h-0.359v0.484H168.709z"/>
</g>
</svg>
