<?xml version="1.0" encoding="utf-8"?>
<!-- Generator: Adobe Illustrator 15.1.0, SVG Export Plug-In . SVG Version: 6.00 Build 0)  -->
<!DOCTYPE svg PUBLIC "-//W3C//DTD SVG 1.1//EN" "http://www.w3.org/Graphics/SVG/1.1/DTD/svg11.dtd">
<svg version="1.1" id="Logos" xmlns="http://www.w3.org/2000/svg" xmlns:xlink="http://www.w3.org/1999/xlink" x="0px" y="0px"
	 width="296px" height="33px" viewBox="0 0 296 33" enable-background="new 0 0 296 33" xml:space="preserve">
<g id="DublNature_xAE_">
	<path fill="#6E5E52" d="M51.566,6.966c0-1.048-0.587-1.67-1.658-1.67h-2.512V1.583h15.284c9.552,0,15.744,4.172,15.744,14.182
		c0,9.609-6.062,13.721-16.002,13.721H47.429v-3.713h2.479c1.071,0,1.658-0.622,1.658-1.693V6.966z M59.46,25.773h1.951
		c5.545,0,8.084-1.9,8.084-10.268c0-8.317-2.539-10.21-8.084-10.21H59.46V25.773z"/>
	<path fill="#6E5E52" d="M96.551,29.486v-3.23h-0.095c-1.83,2.68-3.816,3.854-7.237,3.854c-4.793,0-6.391-2.057-6.391-6.616v-8.516
		c0-1.201-0.295-1.821-1.504-1.821h-1.398V9.795h9.881v12.418c0,2.973,0,4.112,3.254,4.112c1.924,0,3.161-1.797,3.161-3.559v-7.79
		c0-1.201-0.294-1.821-1.528-1.821h-1.858V9.795h10.364v14.509c0,1.175,0.292,1.797,1.528,1.797h1.502v3.385H96.551z"/>
	<path fill="#6E5E52" d="M108.674,6.764c0-1.173-0.294-1.821-1.528-1.821h-1.927V1.584h10.434V12.05
		c1.562-1.762,3.549-2.901,5.44-2.901c6.321,0,8.669,4.921,8.669,10.493c0,5.544-2.348,10.467-8.669,10.467
		c-2.669,0-5.016-0.916-6.486-3.23l-1.21,2.607h-4.723V6.764z M115.653,19.643c0,4.3,0.975,6.873,3.324,6.873
		c2.376,0,3.325-2.573,3.325-6.873c0-4.302-0.948-6.875-3.325-6.875C116.628,12.768,115.653,15.341,115.653,19.643"/>
	<path fill="#6E5E52" d="M140.524,24.306c0,1.174,0.293,1.797,1.529,1.797h1.726v3.384h-13.558v-3.384h1.821
		c1.21,0,1.503-0.623,1.503-1.797V6.764c0-1.173-0.293-1.822-1.503-1.822h-1.95V1.583h10.432V24.306z"/>
	<path fill="#6E5E52" d="M170.94,20.816h0.118V6.966c0-1.048-0.586-1.67-1.657-1.67h-2.572V1.583H179.8v3.713h-2.539
		c-1.019,0-1.605,0.622-1.605,1.67v22.521h-8.533l-11.676-20.76h-0.119V24.08c0,1.071,0.584,1.693,1.658,1.693h2.571v3.713H146.55
		v-3.713h2.574c1.071,0,1.658-0.622,1.658-1.693V6.966c0-1.048-0.587-1.67-1.658-1.67h-2.607V1.583h13.558L170.94,20.816z"/>
	<path fill="#6E5E52" d="M202.028,22.285v2.312c0,4.231-1.623,5.511-6.287,5.511c-2.021,0-4.007-0.948-4.664-2.971
		c-1.728,2.056-3.747,2.971-6.459,2.971c-4.007,0-6.512-1.537-6.512-5.837c0-7.955,12.488-3.266,12.488-8.801
		c0-2.773-1.763-3.714-4.078-3.714c-1.138,0-2.312,0.19-3.298,0.811v0.097c1.244,0.164,2.642,0.819,2.642,2.313
		c0,1.831-1.656,2.642-3.351,2.642c-1.935,0-3.627-1.139-3.627-3.125c0-4.664,6.357-5.345,9.775-5.345
		c5.77,0,8.844,1.363,8.844,7.496v7.849c0,1.209,0.156,1.692,0.813,1.692c0.915,0,1.397-0.552,1.397-2.953v-0.949H202.028z
		 M190.525,19.746c-2.02,1.175-5.442,1.434-5.442,4.042c0,1.726,1.107,2.399,2.435,2.399c2.385,0,3.008-1.812,3.008-3.577V19.746z"
		/>
	<path fill="#6E5E52" d="M211.095,1.972v7.823h5.182v3.361h-5.182v11.598c0,0.882,0.483,1.572,1.434,1.572
		c1.623,0,2.021-1.14,2.021-3.092v-3.264h3.385v3.748c0,4.109-2.02,6.392-7.097,6.392c-4.337,0-6.72-2.092-6.72-6.392V13.156h-2.832
		V9.795c4.23,0,5.335-4.333,5.664-7.823H211.095z"/>
	<path fill="#6E5E52" d="M235.241,29.486v-3.23h-0.121c-1.833,2.68-3.817,3.854-7.236,3.854c-4.77,0-6.392-2.057-6.392-6.616v-8.516
		c0-1.201-0.295-1.821-1.503-1.821h-1.398V9.795h9.879v12.418c0,2.973,0,4.112,3.281,4.112c1.9,0,3.159-1.797,3.159-3.559v-7.79
		c0-1.201-0.293-1.821-1.553-1.821h-1.831V9.795h10.363v14.509c0,1.175,0.294,1.797,1.502,1.797h1.504v3.385H235.241z"/>
	<path fill="#6E5E52" d="M247.104,9.795h9.916v3.36h0.068c0.846-2.02,2.47-4.007,4.924-4.007c2.659,0,4.817,2.022,4.817,4.82
		c0,1.796-1.399,3.721-3.384,3.721c-1.763,0-3.335-0.82-3.335-2.772c0-1.434,0.812-2.315,2.159-2.548
		c-0.397-0.422-0.759-0.483-1.314-0.483c-2.21,0-3.643,2.833-3.643,4.888v7.531c0,1.174,0.294,1.796,1.504,1.796h1.726v3.385
		h-13.438v-3.385h1.727c1.21,0,1.505-0.622,1.505-1.796v-9.328c0-1.201-0.295-1.823-1.505-1.823h-1.727V9.795z"/>
	<path fill="#6E5E52" d="M274.652,20.593c0,2.936,0.705,5.922,4.232,5.922c1.469,0,3.852-1.139,4.214-3.644h4.89
		c-0.657,5.078-5.58,7.239-10.141,7.239c-7.202,0-10.656-4.007-10.656-10.468c0-6.522,4.629-10.492,10.656-10.492
		c6.874,0,10.691,4.885,10.691,11.442H274.652z M281.079,17.24v-1.089c0-2.15-1.092-3.616-3.111-3.616
		c-2.104,0-3.246,1.466-3.246,3.616v1.089H281.079z"/>
	<path fill="#B3CABF" d="M40.161,19.663c1.652-1.791,2.368-4.343,2.375-7.116C42.587,2.693,35.309,0.05,28.05,0.031L16.294,0
		c4.812,8.331,5.808,22.325,16.527,22.353c0.593,0.002,1.158-0.023,1.699-0.073c0.006,0.465-0.004,0.887-0.03,1.37
		c-0.151,2.247-0.874,4.372-2,6.342l3.473,2.375c0.896-2.078,1.592-4.268,1.893-6.672c0.26-2.008,0.154-3.979-0.19-5.958
		C36.74,13.131,31.802,7.543,25.712,5.049C25.712,5.049,39.611,8.108,40.161,19.663"/>
	<path fill="#E3ECE9" d="M2.399,12.705C0.722,14.495,0.006,17.046,0,19.847c-0.027,9.855,7.226,12.472,14.485,12.489l11.781,0.031
		c-4.837-8.331-5.833-22.351-16.553-22.38c-0.592,0-1.158,0.025-1.674,0.102c-0.006-0.44,0.005-0.89,0.031-1.371
		c0.149-2.22,0.873-4.373,2-6.315L6.596,0.001c-0.921,2.078-1.591,4.242-1.919,6.67c-0.233,2.009-0.153,3.979,0.215,5.935
		c0.901,6.657,5.84,12.216,11.931,14.739C16.823,27.345,2.924,24.26,2.399,12.705"/>
	<path fill="#6E5E52" d="M292.522,16.305c-1.959,0-3.463-1.568-3.463-3.463c0-1.894,1.52-3.477,3.479-3.477
		c1.96,0,3.462,1.566,3.462,3.462C296,14.721,294.482,16.305,292.522,16.305 M292.538,9.699c-1.766,0-3.127,1.415-3.127,3.143
		c0,1.728,1.353,3.103,3.111,3.103c1.767,0,3.126-1.39,3.126-3.117C295.648,11.1,294.297,9.699,292.538,9.699 M293.322,13.169
		l0.96,1.385h-0.832l-0.88-1.266h-0.727v1.266h-0.721v-3.63h1.641c0.848,0,1.407,0.432,1.407,1.158
		C294.171,12.674,293.784,13.024,293.322,13.169 M292.739,11.539h-0.896v1.151h0.896c0.422,0,0.694-0.231,0.694-0.575
		C293.434,11.729,293.161,11.539,292.739,11.539"/>
</g>
</svg>
