<?xml version="1.0" encoding="utf-8"?>
<!-- Generator: Adobe Illustrator 15.1.0, SVG Export Plug-In . SVG Version: 6.00 Build 0)  -->
<!DOCTYPE svg PUBLIC "-//W3C//DTD SVG 1.1//EN" "http://www.w3.org/Graphics/SVG/1.1/DTD/svg11.dtd">
<svg version="1.1" id="Logos" xmlns="http://www.w3.org/2000/svg" xmlns:xlink="http://www.w3.org/1999/xlink" x="0px" y="0px"
	 width="172px" height="64px" viewBox="0 0 172 64" enable-background="new 0 0 172 64" xml:space="preserve">
<g id="DublSoft_xAE_">
	<path fill="#003D79" d="M46.666,19.611c-2.695-4.553-6.306-8.635-10.839-12.279l2.258-7.331l-3.777,0.96l-1.22,4.365
		c-5.362-3.537-10.706-5.325-16.027-5.325c-5.695,0-8.541,1.694-8.541,5.09c0,2.941,1.648,6.408,4.958,10.343l1.993-3.755
		c-1.934-1.546-3.252-2.835-3.946-3.843c-0.7-1.011-1.05-2.142-1.05-3.354c0-2.033,1.912-3.067,5.743-3.067
		c2.762,0,5.547,0.522,8.346,1.55c2.786,1.033,5.426,2.525,7.896,4.501l-7.357,25.776c-1.302,4.557-2.987,7.975-5.054,10.226
		c-3.464-1.03-5.951-1.702-7.432-2.03c-1.489-0.308-2.794-0.459-3.923-0.459c-2.515,0-4.59,0.411-6.227,1.204
		C0.818,42.975,0,43.949,0,45.074c0,1.227,0.812,2.234,2.451,2.968c1.624,0.751,3.861,1.114,6.684,1.114
		c4.332,0,7.902-1.176,10.729-3.527c2.855,1.271,5.318,2.184,7.406,2.704c2.085,0.546,4.132,0.823,6.126,0.823
		c5.353,0,9.562-1.512,12.67-4.535c3.098-3.018,4.64-7.117,4.64-12.338C50.706,28.393,49.357,24.165,46.666,19.611 M10.108,47.752
		c-2.015,0-3.682-0.27-4.977-0.778c-1.306-0.505-1.953-1.171-1.953-1.976c0-0.688,0.643-1.272,1.904-1.783
		c1.263-0.509,2.855-0.777,4.779-0.777c1.967,0,4.813,0.852,8.542,2.561C16.16,46.824,13.395,47.752,10.108,47.752 M35.901,46.53
		c-1.733,0-3.453-0.14-5.187-0.424c-1.717-0.31-4.722-0.997-9.004-2.141c2.859-3.104,5.079-7.239,6.634-12.371l6.804-21.983
		c3.778,3.463,6.802,7.522,9.064,12.166c2.254,4.633,3.373,9.061,3.373,13.26C47.585,42.7,43.695,46.53,35.901,46.53"/>
	<path fill="#003D79" d="M96.987,41.163l-0.646-0.649c-2.276,2.349-6.965,6.587-7.747,6.587c-0.493,0-0.729-0.348-0.743-1.05
		c-0.012-0.702,0.197-1.835,0.596-3.425l2.638-10.461c3.58-4.364,6.384-8.708,8.353-13.017c1.967-4.292,2.949-8.104,2.949-11.374
		c0-1.521-0.238-2.788-0.747-3.771c-0.512-0.983-1.12-1.476-1.859-1.476c-1.377,0-2.533,0.848-3.466,2.547
		c-0.967,1.696-2.137,4.986-3.51,9.899l-5.433,19.417c-1.496,1.495-2.568,2.553-3.208,3.175c-0.054-1.267-0.409-2.312-1.125-3.1
		c-0.759-0.857-1.76-1.268-3.005-1.268c-1.188,0-2.469,0.56-3.832,1.707c-1.378,1.151-2.622,2.688-3.752,4.614L83.021,2.528
		l-3.735,0.957L68.309,43.637l-0.054-0.023c-1.02,1.018-1.973,1.889-2.874,2.593c-0.916,0.698-1.513,1.051-1.834,1.051
		c-0.265,0-0.449-0.128-0.558-0.419c-0.109-0.257-0.083-0.592,0.058-0.995l3.868-12.644l-3.236,0.672
		c-0.939,2.881-2.578,5.921-4.901,9.098c-2.292,3.162-3.977,4.709-5.054,4.709c-1.329,0-1.648-1.173-0.959-3.521l3.179-10.957
		L52.7,33.871l-2.368,8.755c-0.548,2.039-0.583,3.65-0.134,4.803c0.464,1.15,1.328,1.728,2.623,1.728
		c2.314,0,5.162-2.767,8.541-8.296l-1.092,3.948c-0.348,1.31-0.348,2.332,0,3.154c0.358,0.796,0.988,1.193,1.875,1.193
		c0.749,0,1.64-0.368,2.664-1.131c0.824-0.581,1.862-1.54,3.104-2.776c-0.441,2.579,1.106,3.907,4.727,3.907
		c2.812,0,5.471-1.344,7.985-4.003c1.079-1.138,1.945-2.38,2.585-3.696c0.48-0.988,0.791-1.904,0.903-2.776l0.136,0.23
		c0.829-0.733,1.66-1.48,2.49-2.189l-1.34,4.827c-1.387,5.08-0.841,7.607,1.664,7.607c0.705,0,1.586-0.368,2.606-1.131
		C90.691,47.293,95.227,42.941,96.987,41.163 M96.827,8.922c0.807-3.32,1.562-4.978,2.302-4.978c0.729,0,1.074,0.688,1.074,2.044
		c0,3.431-0.718,7.202-2.195,11.266c-1.491,4.098-3.521,7.908-6.08,11.468L96.827,8.922z M78.406,44.789
		c-1.636,2.184-3.522,3.272-5.633,3.272c-1.235,0-1.847-0.653-1.847-1.955c0-1.782,1.004-4.108,2.997-7.003
		c0.914-1.305,1.807-2.362,2.7-3.144c0.875-0.779,1.608-1.188,2.198-1.188c1.365,0,2.054,0.928,2.054,2.757
		C80.874,40.187,80.056,42.605,78.406,44.789"/>
	<path fill="#003D79" d="M129.411,30.175c-1.812-2.017-4.656-4.133-8.56-6.314c-4.354-2.419-7.22-4.317-8.652-5.745
		c-1.426-1.395-2.127-2.939-2.127-4.601c0-1.426,0.521-2.843,1.544-4.321c1.036-1.444,2.514-2.761,4.367-3.947
		c4.147-2.633,8.927-3.961,14.386-3.961c4.723,0,7.082,1.316,7.082,3.924c0,2.515-3.124,5.146-9.34,7.926l0.456,3.905
		c7.28-4.798,10.932-8.719,10.932-11.831c0-1.569-0.835-2.811-2.481-3.758C135.368,0.474,133.141,0,130.369,0
		c-3.087,0-6.075,0.383-8.997,1.117c-2.888,0.759-5.49,1.84-7.741,3.211c-2.306,1.378-4.051,2.946-5.301,4.684
		c-1.248,1.749-1.856,3.539-1.856,5.391c0,2.257,0.94,4.327,2.79,6.199c1.846,1.873,5.162,4.123,9.926,6.719
		c3.893,2.13,6.561,3.956,8.037,5.497c1.444,1.544,2.185,3.321,2.185,5.36c0,2.683-1.368,4.867-4.097,6.552
		c-2.73,1.683-6.267,2.527-10.607,2.527c-2.73,0-5.657-0.537-8.81-1.604c-3.187-1.041-5.807-2.375-7.892-3.948l-3.025,3.181
		c5.671,2.844,11.762,4.271,18.27,4.271c5.25,0,9.708-1.204,13.349-3.64c3.659-2.407,5.492-5.405,5.492-8.942
		C132.091,34.327,131.187,32.191,129.411,30.175"/>
	<path fill="#003D79" d="M144.656,45.417c0.994-1.07,1.771-2.214,2.355-3.461c0.553-1.22,0.86-2.374,0.86-3.395
		c0-1.567-0.481-2.843-1.416-3.851c-0.922-1.008-2.156-1.512-3.678-1.512c-2.729,0-5.23,1.229-7.505,3.722
		c-0.999,1.067-1.802,2.213-2.356,3.461c-0.582,1.216-0.861,2.378-0.861,3.399c0,1.562,0.461,2.855,1.396,3.863
		c0.939,1.007,2.177,1.512,3.694,1.512C139.847,49.156,142.352,47.907,144.656,45.417 M142.398,43.966
		c-1.562,2.683-3.153,4.021-4.748,4.021c-0.707,0-1.282-0.27-1.682-0.84c-0.406-0.543-0.617-1.344-0.617-2.338
		c0-0.831,0.202-1.846,0.61-3.042c0.374-1.177,0.896-2.334,1.534-3.395c1.596-2.683,3.176-4.023,4.749-4.023
		c0.737,0,1.285,0.271,1.704,0.844c0.418,0.54,0.595,1.341,0.595,2.337c0,0.828-0.177,1.846-0.578,3.042
		C143.561,41.766,143.038,42.901,142.398,43.966"/>
	<path fill="#003D79" d="M162.679,32.709c-2.202,1.047-5.688,2.027-8.701,2.027l0.842-2.881c3.37-3.631,6.179-7.727,8.368-12.271
		c2.22-4.57,3.347-8.516,3.347-11.811c0-3.486-0.904-5.246-2.683-5.246c-1.401,0-2.692,1.093-3.903,3.251
		c-1.213,2.159-2.614,5.99-4.175,11.494l-4.902,17.348c-0.406,0-1.119-0.106-2.137-0.345l1.344,3.141l-7.439,26.462l3.744-0.961
		l6.979-25.807c1.52-0.234,3.099-0.655,4.748-1.225c1.633-0.542,3.013-1.176,4.101-1.848L162.679,32.709z M160.999,8.922
		c0.512-1.926,0.959-3.258,1.304-3.941c0.346-0.688,0.727-1.036,1.205-1.036c0.284,0,0.515,0.196,0.68,0.577
		c0.174,0.406,0.28,0.914,0.28,1.531c0,3.084-0.835,6.823-2.51,11.276c-1.671,4.448-3.793,8.312-6.333,11.658L160.999,8.922z"/>
	<path fill="#003D79" d="M167.442,29.947l3.18-10.799l-3.24,0.688l-2.928,10.11h-2.943l-0.512,2.066h2.853l-3.726,12.795
		c-0.405,1.324-0.43,2.36-0.073,3.172c0.356,0.784,0.983,1.176,1.911,1.176c0.731,0,1.624-0.368,2.646-1.131
		c1.021-0.732,2.397-2.004,4.116-3.759l-0.631-0.653c-1.021,1.042-1.979,1.92-2.899,2.608c-0.906,0.688-1.51,1.036-1.845,1.036
		c-0.642,0-0.809-0.462-0.501-1.415l4.025-13.829h4.59L172,29.947H167.442z"/>
	<path fill="#003D79" d="M169.472,47.105c0-0.287-0.146-0.427-0.483-0.427h-0.584v1.487h0.187v-0.661h0.305l0.435,0.661h0.224
		l-0.464-0.661C169.298,47.477,169.472,47.355,169.472,47.105 M168.848,47.352h-0.257v-0.52h0.335c0.185,0,0.359,0.059,0.359,0.273
		C169.285,47.346,169.062,47.352,168.848,47.352"/>
	<path fill="#003D79" d="M168.891,46.133c-0.731,0-1.305,0.57-1.305,1.306c0,0.71,0.573,1.282,1.305,1.282
		c0.715,0,1.286-0.572,1.286-1.282C170.177,46.703,169.605,46.133,168.891,46.133 M168.891,48.531c-0.641,0-1.097-0.486-1.097-1.093
		c0-0.634,0.456-1.127,1.097-1.127c0.622,0,1.079,0.493,1.079,1.127C169.97,48.045,169.513,48.531,168.891,48.531"/>
</g>
</svg>
