<?xml version="1.0" encoding="utf-8"?>
<!-- Generator: Adobe Illustrator 15.1.0, SVG Export Plug-In . SVG Version: 6.00 Build 0)  -->
<!DOCTYPE svg PUBLIC "-//W3C//DTD SVG 1.1//EN" "http://www.w3.org/Graphics/SVG/1.1/DTD/svg11.dtd">
<svg version="1.1" id="EcoSoft_xAE_" xmlns="http://www.w3.org/2000/svg" xmlns:xlink="http://www.w3.org/1999/xlink" x="0px"
	 y="0px" width="180px" height="40px" viewBox="-53.5 164.5 180 40" enable-background="new -53.5 164.5 180 40"
	 xml:space="preserve">
<path fill="#1D5632" d="M-7.423,192.053h-0.548l-0.22,0.5c-0.552,1.243-2.295,4.138-6.531,4.138c-4.146,0-7.154-3.15-7.154-7.498
	c0-2.091,0.722-4.068,1.98-5.423c1.465-1.413,3.044-2.067,4.973-2.067c0.06,0,0.123,0,0.18,0c3.022,0,5.458,1.627,6.541,4.351
	l0.208,0.532h0.572h6.609H0.25l-0.249-1.033c-1.647-6.907-7.666-11.549-14.973-11.549c-8.467,0-14.945,6.677-15.095,15.189
	c-0.041,2.342,0.649,5.096,1.694,7.103h-16.099v-7.129h12.032h0.843v-0.837v-6.461v-0.842h-0.843h-12.032v-6.602h12.28h0.84v-0.843
	v-6.464v-0.838h-0.84h-20.472H-53.5v0.838v36.476v0.847h0.837h34.251h3.688c3.546,0,6.841-1.136,9.528-3.281
	c2.545-2.027,4.389-4.892,5.193-8.059l0.267-1.048h-1.08H-7.423z"/>
<path fill="#1D5632" d="M16.634,196.641c-4.033,0-7.198-3.251-7.198-7.396v-0.049c0-4.246,3.096-7.444,7.198-7.444
	c4.078,0,7.152,3.198,7.152,7.444C23.787,193.438,20.712,196.641,16.634,196.641 M16.634,174.053c-9.966,0-15.34,7.776-15.34,15.094
	v0.048c0,7.364,5.374,15.195,15.34,15.195c9.967,0,15.341-7.831,15.341-15.195C31.976,181.858,26.601,174.053,16.634,174.053"/>
<path fill="#BFD09B" d="M50.556,181.178l-0.81-0.336c-5.62-2.334-6.812-2.896-6.774-4.845c0-1.9,1.567-3.321,3.646-3.321
	c2.805,0,3.389,1.959,3.713,3.794l0.125,0.696h0.704h7.248h0.871l-0.026-0.87c-0.146-3.874-1.669-6.986-4.41-9.008
	c-2.907-2.139-6.243-2.457-7.976-2.457c-6.264,0-12.924,4.08-12.924,11.642c0,7.487,6.764,9.909,9.672,10.945
	c0.355,0.147,0.708,0.282,1.05,0.419c4.53,1.785,6.101,2.517,6.101,4.716c0,2.165-1.896,3.99-4.146,3.99
	c-0.671,0-4.047-0.243-4.288-5.07l-0.041-0.797h-0.797h-7.301h-0.832l-0.008,0.835c-0.027,3.8,1.148,7.01,3.401,9.273
	c2.339,2.358,5.788,3.607,9.97,3.607c4.196,0,7.625-1.295,9.92-3.738c2.002-2.131,3.103-5.135,3.103-8.447
	C59.743,186.36,56.071,183.569,50.556,181.178"/>
<path fill="#BFD09B" d="M74.911,196.641c-4.038,0-7.203-3.251-7.203-7.396v-0.049c0-4.246,3.1-7.444,7.203-7.444
	c4.074,0,7.152,3.198,7.152,7.444C82.063,193.438,78.985,196.641,74.911,196.641 M74.911,174.053c-9.967,0-15.34,7.776-15.34,15.094
	v0.048c0,7.364,5.373,15.195,15.34,15.195c9.968,0,15.342-7.831,15.342-15.195C90.252,181.858,84.878,174.053,74.911,174.053"/>
<path fill="#BFD09B" d="M123.967,197.729c-1.506,0-4.386,0-4.479-0.003c-1.694-0.014-3.102-0.235-3.152-2.827v-13.396h3.794h0.843
	v-0.837v-4.983v-0.841h-0.843h-3.794v-7.724v-0.838h-8.134l-0.013,8.562h-2.769h-0.146h-0.692h-0.146h-3.455v0.376
	c0-2.355,0.633-3.084,3.488-3.082h0.84v-1.162v-5.318v-0.677c-4.801-0.524-12.472-0.128-12.472,9.177v0.687h-2.511H89.49v0.841
	v4.983v0.837h0.838h2.511v22.156v0.841h0.845h6.459h0.84v-0.841v-22.156h3.455h0.146h0.692h0.146h2.769v10.67l-0.004,0.841v1.95
	c0,9.238,7.862,9.363,11.217,9.421c0.07,0,1.129,0.003,2.734,0.003c0.934,0,1.762,0,1.819,0.003l0.854,0.005v-0.846v-4.982v-0.838
	H123.967z"/>
<g>
	<path fill="#BFD09B" d="M122.986,172.141c0-0.243,0.047-0.469,0.138-0.683c0.095-0.211,0.22-0.396,0.378-0.553
		c0.158-0.16,0.346-0.283,0.561-0.375c0.213-0.093,0.438-0.14,0.681-0.14s0.467,0.047,0.681,0.14c0.215,0.092,0.4,0.215,0.561,0.375
		c0.158,0.155,0.283,0.34,0.378,0.553c0.09,0.214,0.138,0.439,0.138,0.683c0,0.241-0.048,0.466-0.138,0.677
		c-0.095,0.209-0.22,0.394-0.378,0.551c-0.159,0.156-0.346,0.278-0.561,0.369c-0.214,0.09-0.438,0.135-0.681,0.135
		s-0.468-0.045-0.681-0.135c-0.215-0.09-0.401-0.211-0.561-0.369c-0.158-0.157-0.283-0.342-0.378-0.551
		C123.033,172.606,122.986,172.382,122.986,172.141z M123.262,172.141c0,0.199,0.041,0.39,0.118,0.569
		c0.074,0.18,0.183,0.337,0.315,0.475c0.132,0.135,0.287,0.242,0.469,0.319c0.18,0.077,0.372,0.116,0.578,0.116
		s0.398-0.041,0.579-0.116c0.18-0.077,0.335-0.185,0.469-0.319c0.132-0.137,0.239-0.294,0.313-0.475
		c0.08-0.18,0.119-0.37,0.119-0.569c0-0.206-0.039-0.399-0.119-0.579c-0.074-0.18-0.183-0.336-0.313-0.47
		c-0.134-0.133-0.289-0.238-0.469-0.315c-0.181-0.076-0.373-0.115-0.579-0.115s-0.398,0.039-0.578,0.115
		c-0.182,0.077-0.337,0.184-0.469,0.315c-0.133,0.134-0.241,0.291-0.315,0.47C123.303,171.741,123.262,171.935,123.262,172.141z
		 M124.059,171.146h0.691c0.091,0,0.184,0.011,0.268,0.029c0.09,0.021,0.17,0.056,0.236,0.101c0.071,0.047,0.123,0.105,0.165,0.176
		c0.042,0.072,0.063,0.162,0.063,0.271c0,0.146-0.043,0.261-0.127,0.351c-0.08,0.09-0.188,0.151-0.33,0.181l0.531,0.862h-0.43
		l-0.464-0.823h-0.252v0.823h-0.354v-1.97H124.059z M124.695,172.009c0.104,0,0.199-0.02,0.295-0.057
		c0.09-0.041,0.138-0.117,0.138-0.236c0-0.105-0.043-0.18-0.129-0.214c-0.084-0.037-0.17-0.056-0.265-0.056h-0.322v0.563
		L124.695,172.009L124.695,172.009z"/>
</g>
</svg>
