<?xml version="1.0" encoding="UTF-8" standalone="no"?>
<svg width="224px" height="44px" viewBox="0 0 224 44" version="1.1" xmlns="http://www.w3.org/2000/svg" xmlns:xlink="http://www.w3.org/1999/xlink" xmlns:sketch="http://www.bohemiancoding.com/sketch/ns">
    <!-- Generator: Sketch 3.4.4 (17249) - http://www.bohemiancoding.com/sketch -->
    <title>logo-color</title>
    <desc>Created with Sketch.</desc>
    <defs></defs>
    <g id="Page-1" stroke="none" stroke-width="1" fill="none" fill-rule="evenodd" sketch:type="MSPage">
        <g id="logo" sketch:type="MSLayerGroup" transform="translate(0.000000, -0.600000)">
            <g id="SCA-logo" transform="translate(212.587574, 27.798259)" sketch:type="MSShapeGroup">
                <path d="M0.272866198,13.5440858 C0.669762486,13.8665641 1.16588285,13.9905942 1.66200321,13.9905942 C2.4806018,13.9905942 3.00152818,13.5440858 3.00152818,12.8991294 C3.00152818,12.403009 2.753468,12.1053368 2.10851153,11.9316947 C2.03409348,11.9068886 1.61239117,11.8076646 1.5131671,11.7828586 C1.19068886,11.6836345 1.09146479,11.5596044 1.09146479,11.3611562 C1.09146479,11.1379021 1.33952497,10.96426 1.66200321,10.96426 C1.88525737,10.96426 2.03409348,11.013872 2.2077356,11.08829 C2.57982587,11.2371262 2.77827402,11.1130961 2.90230411,10.8154239 C2.57982587,10.5425577 2.18292958,10.3937215 1.63719719,10.3937215 C0.917822666,10.3937215 0.396896288,10.8402299 0.396896288,11.4355743 C0.396896288,11.9316947 0.694568504,12.2293669 1.21549488,12.378203 C1.31471895,12.403009 1.68680922,12.5022331 1.76122728,12.5270391 C2.23254162,12.6262632 2.30695967,12.7750993 2.30695967,12.9735474 C2.30695967,13.2216076 2.08370551,13.4200557 1.66200321,13.4200557 C1.41394303,13.4200557 1.19068886,13.3456377 0.942628684,13.2464136 C0.719374522,13.1223835 0.421702306,13.1719956 0.272866198,13.5440858 L0.272866198,13.5440858 Z" id="Shape" fill="#00396B"></path>
                <path d="M6.67281884,10.9146479 C6.37514663,10.6169757 6.00305636,10.3689155 5.33329387,10.3689155 C4.31624713,10.3689155 3.52245456,11.1379021 3.52245456,12.1797548 C3.52245456,13.1471895 4.24182908,13.9905942 5.30848785,13.9905942 C5.90383229,13.9905942 6.37514663,13.792146 6.7472369,13.3704437 L6.32553459,12.9487414 C6.05266839,13.2216076 5.75499618,13.4200557 5.33329387,13.4200557 C4.6883374,13.4200557 4.21702306,12.8991294 4.21702306,12.2045609 C4.21702306,11.5099924 4.6883374,11.013872 5.33329387,11.013872 C5.55654803,11.013872 5.75499618,11.063484 5.9286383,11.1875141 C6.2015045,11.3363502 6.49917672,11.2619322 6.67281884,10.9146479 L6.67281884,10.9146479 Z" id="Shape" fill="#00396B"></path>
                <path d="M9.17822666,10.4433336 L9.00458454,10.4433336 C8.6821063,10.4433336 8.53327019,10.4681396 8.35962807,10.9146479 L7.04490911,13.9657881 L7.7146716,13.9657881 L8.06195585,13.1223835 L9.649541,13.1223835 L9.99682526,13.9657881 L10.7161998,13.9657881 L9.17822666,10.4433336 L9.17822666,10.4433336 Z M9.40148082,12.5270391 L8.28521001,12.5270391 L8.83094241,11.2123201 L9.40148082,12.5270391 L9.40148082,12.5270391 Z" id="Shape" fill="#00396B"></path>
                <path d="M8.65730028,15.5533733 C8.43404612,15.7766275 8.03714983,16.1239117 7.81389567,16.2479418 C7.56583549,16.3719719 7.49141744,16.2975538 7.54102947,16.0742997 C7.61544753,15.8014335 7.81389567,15.3549251 7.9875378,15.0572529 C8.06195585,14.9332228 8.11156789,14.7843867 8.01234382,14.7595807 C7.91311974,14.7099687 7.81389567,14.7843867 7.68986558,15.0076409 C7.56583549,15.2308951 7.34258133,15.8014335 7.26816328,16.0991057 C7.21855124,16.3967779 7.29296929,16.545614 7.49141744,16.545614 C7.73947762,16.545614 8.21079196,16.1983298 8.58288223,15.8510455 C8.55807621,15.9750756 8.45885214,16.2727478 8.43404612,16.3471659 C8.4092401,16.4463899 8.53327019,16.496002 8.60768825,16.3719719 C8.70691232,16.1983298 8.85574843,15.8262395 8.88055445,15.6277913 C8.90536046,15.4789552 8.78133037,15.4293432 8.65730028,15.5533733 L8.65730028,15.5533733 Z" id="Shape" fill="#00396B"></path>
                <path id="Shape" fill="#00396B" d="M8.88055445,15.181283 C8.9549725,15.181283 9.02939055,15.106865 9.05419657,15.0324469 C9.05419657,14.9580289 9.00458454,14.8836108 8.93016648,14.8836108 C8.85574843,14.8836108 8.78133037,14.9580289 8.78133037,15.0324469 C8.75652436,15.106865 8.80613639,15.181283 8.88055445,15.181283 L8.88055445,15.181283 Z"></path>
                <path d="M6.72243088,14.7347747 C6.57359477,14.7347747 6.42475866,14.8091927 6.32553459,15.0324469 C6.25111654,15.156477 6.2015045,15.3549251 6.12708645,15.5533733 C5.97825034,15.5533733 5.82941423,15.5285673 5.68057812,15.5037613 C5.55654803,15.4789552 5.506936,15.6029853 5.55654803,15.6774034 C5.60616007,15.7270154 5.63096609,15.8262395 5.60616007,15.9502696 C5.55654803,16.0991057 5.45732396,16.2231358 5.30848785,16.1983298 C5.18445776,16.1735237 5.13484573,16.0246876 5.18445776,15.8262395 C5.2340698,15.6525974 5.33329387,15.5533733 5.45732396,15.5037613 C5.58135405,15.4541492 5.55654803,15.3053131 5.40771193,15.3301191 C5.20926378,15.3797312 5.01081564,15.5781793 4.9612036,15.8262395 C4.88678555,16.1239117 5.03562165,16.3471659 5.28368183,16.3719719 C5.506936,16.3719719 5.73019016,16.2231358 5.80460821,15.9254636 C5.82941423,15.8510455 5.80460821,15.7518214 5.7798022,15.6774034 C5.87902627,15.7022094 5.95344432,15.7022094 6.05266839,15.7022094 C5.95344432,15.9998816 5.87902627,16.3223598 5.82941423,16.57042 C5.80460821,16.6696441 5.85422025,16.6944501 5.87902627,16.6944501 C5.90383229,16.6944501 5.95344432,16.6696441 5.95344432,16.6200321 C6.02786238,16.3471659 6.12708645,16.0246876 6.25111654,15.7022094 C6.4743707,15.6774034 6.69762486,15.6277913 6.87126699,15.5533733 C6.97049106,15.5037613 6.97049106,15.4045372 6.87126699,15.4293432 C6.69762486,15.4789552 6.49917672,15.5037613 6.32553459,15.5285673 C6.39995265,15.3797312 6.44956468,15.2308951 6.52398274,15.0820589 C6.57359477,14.9828349 6.62320681,14.9332228 6.67281884,14.9084168 C6.7472369,14.8836108 6.79684893,14.8836108 6.84646097,14.9332228 C6.89607301,14.9828349 6.99529708,14.9332228 6.94568504,14.8339988 C6.94568504,14.7843867 6.84646097,14.7099687 6.72243088,14.7347747 L6.72243088,14.7347747 Z" id="Shape" fill="#00396B"></path>
                <path d="M10.7906178,16.1239117 C10.6913938,16.1735237 10.5673637,16.2231358 10.4433336,16.2231358 C10.2944975,16.2231358 10.1704674,16.1983298 10.1208553,16.0991057 C10.4929456,16.0246876 10.7161998,15.8262395 10.7410058,15.6277913 C10.7410058,15.5037613 10.6913938,15.3549251 10.4433336,15.3797312 C10.3689155,15.3797312 10.3193035,15.4045372 10.2448854,15.4293432 C10.0712433,15.4789552 9.77357109,15.5285673 9.5007049,15.5285673 C9.57512295,15.3797312 9.62473499,15.2308951 9.69915304,15.106865 C9.79837711,14.9084168 9.94721322,14.9084168 10.0216313,14.9580289 C10.0712433,15.0076409 10.1456614,14.9580289 10.0960493,14.8836108 C10.0464373,14.8091927 9.94721322,14.7595807 9.82318313,14.7595807 C9.67434702,14.7595807 9.52551091,14.8339988 9.42628684,15.0572529 C9.37667481,15.181283 9.30225675,15.3549251 9.2278387,15.5533733 L9.07900259,15.5533733 C8.97977852,15.5533733 8.97977852,15.7518214 9.10380861,15.7518214 L9.17822666,15.7518214 C9.07900259,16.0742997 8.97977852,16.4215839 8.9549725,16.6448381 C8.93016648,16.7440622 8.97977852,16.7688682 9.00458454,16.7688682 C9.02939055,16.7688682 9.07900259,16.7440622 9.07900259,16.6944501 C9.15342064,16.3967779 9.27745073,16.0494936 9.40148082,15.7270154 C9.59992897,15.7022094 9.82318313,15.6774034 9.97201924,15.6277913 C9.89760118,15.7270154 9.82318313,15.8510455 9.82318313,15.9998816 C9.79837711,16.3223598 10.0464373,16.471196 10.2944975,16.4463899 C10.5177516,16.4463899 10.7161998,16.3223598 10.8154239,16.2231358 C10.8898419,16.1487177 10.8650359,16.0742997 10.7906178,16.1239117 L10.7906178,16.1239117 Z M10.5177516,15.5285673 C10.5673637,15.5781793 10.5673637,15.7270154 10.4185276,15.8262395 C10.3193035,15.9006575 10.1952734,15.9502696 10.0960493,15.9750756 C10.0960493,15.8510455 10.1456614,15.7022094 10.2448854,15.6029853 C10.3441095,15.5037613 10.4681396,15.5037613 10.5177516,15.5285673 L10.5177516,15.5285673 Z" id="Shape" fill="#00396B"></path>
                <path d="M3.64648465,15.2805071 C3.52245456,15.3053131 3.39842447,15.4541492 3.29920039,15.5781793 C3.24958836,15.6277913 3.19997632,15.7022094 3.15036429,15.7766275 C3.1751703,15.6774034 3.19997632,15.5781793 3.19997632,15.5037613 C3.22478234,15.3797312 3.05114021,15.3301191 2.97672216,15.4789552 C2.82788605,15.7270154 2.60463189,16.0246876 2.43098976,16.1487177 C2.35657171,16.1983298 2.30695967,16.2231358 2.25734764,16.2231358 C2.2077356,16.2231358 2.18292958,16.1735237 2.18292958,16.0991057 C2.18292958,16.0246876 2.2077356,15.9502696 2.23254162,15.8758515 C2.28215366,15.7766275 2.23254162,15.7518214 2.15812357,15.7518214 C2.08370551,15.7518214 2.05889949,15.8014335 2.00928746,15.8510455 C1.95967542,15.9502696 1.91006339,16.0246876 1.83564533,16.1239117 C1.76122728,16.1983298 1.66200321,16.2479418 1.61239117,16.1983298 C1.56277913,16.1735237 1.53797312,16.0991057 1.56277913,15.9998816 C1.58758515,15.8262395 1.68680922,15.6525974 1.81083931,15.5781793 C1.88525737,15.5285673 1.95967542,15.5037613 2.00928746,15.5285673 C2.05889949,15.5285673 2.10851153,15.5533733 2.15812357,15.5781793 C2.18292958,15.6029853 2.23254162,15.6029853 2.25734764,15.5781793 C2.25734764,15.5533733 2.28215366,15.5285673 2.28215366,15.5037613 C2.25734764,15.4293432 2.18292958,15.3797312 2.08370551,15.3549251 C1.91006339,15.3301191 1.71161524,15.3797312 1.46355506,15.6277913 C1.38913701,15.7270154 1.31471895,15.8510455 1.28991294,15.9750756 C1.2403009,16.2231358 1.36433099,16.3967779 1.56277913,16.3967779 C1.66200321,16.3967779 1.81083931,16.3471659 1.95967542,16.1487177 C1.95967542,16.2479418 2.00928746,16.3471659 2.08370551,16.3719719 C2.18292958,16.3967779 2.30695967,16.3719719 2.40618375,16.2727478 C2.57982587,16.1239117 2.72866198,15.9254636 2.85269207,15.7518214 C2.82788605,15.8758515 2.72866198,16.1487177 2.70385596,16.2727478 C2.65424393,16.3967779 2.82788605,16.4463899 2.87749809,16.2975538 C2.97672216,16.0742997 3.12555827,15.8758515 3.24958836,15.7270154 C3.37361845,15.5781793 3.52245456,15.4789552 3.59687261,15.4541492 C3.67129066,15.4293432 3.7209027,15.3797312 3.7209027,15.3301191 C3.79532075,15.3053131 3.74570872,15.2557011 3.64648465,15.2805071 L3.64648465,15.2805071 Z" id="Shape" fill="#00396B"></path>
                <path d="M4.4154712,16.1735237 C4.31624713,16.2479418 4.21702306,16.2975538 4.06818695,16.2975538 C3.89454483,16.2975538 3.77051474,16.2231358 3.74570872,16.0742997 C4.11779899,16.0991057 4.34105315,15.9006575 4.36585917,15.7022094 C4.36585917,15.5781793 4.31624713,15.4293432 4.09299297,15.4293432 C3.82012677,15.4293432 3.52245456,15.7022094 3.49764854,15.9998816 C3.47284252,16.2975538 3.67129066,16.4463899 3.94415686,16.4463899 C4.16741102,16.4463899 4.34105315,16.3471659 4.44027722,16.2479418 C4.53950129,16.1983298 4.48988926,16.1239117 4.4154712,16.1735237 L4.4154712,16.1735237 Z M4.19221704,15.6029853 C4.24182908,15.6525974 4.21702306,15.7766275 4.09299297,15.8510455 C3.9937689,15.9006575 3.89454483,15.9254636 3.77051474,15.9254636 C3.79532075,15.8262395 3.84493279,15.7022094 3.91935084,15.6525974 C4.01857492,15.5781793 4.14260501,15.5781793 4.19221704,15.6029853 L4.19221704,15.6029853 Z" id="Shape" fill="#00396B"></path>
                <path d="M1.41394303,15.206089 C1.36433099,15.131671 1.26510692,15.0572529 1.09146479,15.0820589 C0.793792576,15.0820589 0.421702306,15.3549251 0.272866198,15.8510455 C0.148836108,16.2479418 0.297672216,16.595226 0.644956468,16.57042 C0.768986558,16.57042 0.917822666,16.520808 1.01704674,16.4463899 L1.01704674,16.4463899 C1.04185276,16.4215839 1.09146479,16.3967779 1.09146479,16.3967779 C1.19068886,16.3223598 1.21549488,16.2727478 1.26510692,16.1983298 C1.31471895,16.1239117 1.2403009,16.0246876 1.16588285,16.0991057 C1.09146479,16.1983298 1.04185276,16.2231358 0.917822666,16.2727478 C0.86821063,16.2975538 0.768986558,16.3223598 0.74418054,16.3223598 C0.644956468,16.3223598 0.570538414,16.2975538 0.545732396,16.2231358 C0.49612036,16.0991057 0.520926378,15.8262395 0.644956468,15.6029853 C0.768986558,15.3797312 0.917822666,15.2805071 1.01704674,15.2805071 C1.09146479,15.2805071 1.16588285,15.3053131 1.21549488,15.3549251 C1.2403009,15.4045372 1.28991294,15.4045372 1.33952497,15.4045372 C1.41394303,15.3797312 1.43874904,15.2805071 1.41394303,15.206089 L1.41394303,15.206089 Z" id="Shape" fill="#00396B"></path>
                <path d="M6.27592256,2.15812357 L6.92087902,1.04185276 L6.57359477,0.421702306 C6.42475866,0.198448144 6.35034061,0.099224072 6.12708645,0.099224072 C5.95344432,0.099224072 5.82941423,0.223254162 5.75499618,0.37209027 L5.506936,0.818598594 L6.27592256,2.15812357 L6.27592256,2.15812357 Z" id="Shape" fill="#00AEEF"></path>
                <path d="M5.48212998,3.49764854 L4.6883374,2.13331755 L1.71161524,7.24335726 C1.63719719,7.39219337 1.58758515,7.56583549 1.66200321,7.7146716 L2.45579578,9.10380861 C2.35657171,8.90536046 2.40618375,8.73171834 2.50540782,8.53327019 L5.48212998,3.49764854 L5.48212998,3.49764854 Z" id="Shape" fill="#00AEEF"></path>
                <g id="Group" transform="translate(3.224782, 0.000000)" fill="#50B848">
                    <path d="M7.46661142,5.18445776 C7.54102947,5.03562165 7.49141744,4.86197953 7.41699938,4.73794944 L4.88678555,0.37209027 C4.81236749,0.223254162 4.6883374,0.099224072 4.46508324,0.099224072 L2.90230411,0.099224072 C3.12555827,0.099224072 3.22478234,0.198448144 3.34881243,0.421702306 L6.22631052,5.40771193 L6.97049106,5.40771193 C7.19374522,5.40771193 7.34258133,5.35809989 7.46661142,5.18445776 L7.46661142,5.18445776 Z" id="Shape"></path>
                    <path d="M0,0.074418054 C0.223254162,0.074418054 0.322478234,0.173642126 0.446508324,0.396896288 L3.34881243,5.38290591 L4.91159156,5.38290591 L1.98448144,0.347284252 C1.91006339,0.198448144 1.7860333,0.074418054 1.56277913,0.074418054 L0,0.074418054 L0,0.074418054 Z" id="Shape"></path>
                    <path d="M5.75499618,6.79684893 L4.19221704,6.79684893 L4.88678555,7.96273178 L5.55654803,7.96273178 C5.80460821,7.96273178 5.95344432,7.91311974 6.07747441,7.73947762 L6.07747441,7.73947762 C6.17669848,7.56583549 6.15189247,7.39219337 6.05266839,7.24335726 L5.75499618,6.79684893 L5.75499618,6.79684893 Z" id="Shape"></path>
                </g>
                <g id="Group" transform="translate(2.232542, 5.209264)" fill="#00396B">
                    <g id="Shape">
                        <path d="M7.96273178,0.198448144 L2.13331755,0.198448144 L1.31471895,1.58758515 L7.19374522,1.58758515 C7.39219337,1.58758515 7.54102947,1.53797312 7.64025355,1.38913701 L8.43404612,0 C8.33482205,0.148836108 8.18598594,0.198448144 7.96273178,0.198448144 L7.96273178,0.198448144 Z"></path>
                        <path d="M0.223254162,3.94415686 C0.322478234,4.09299297 0.471314342,4.14260501 0.644956468,4.14260501 L5.7798022,4.14260501 C6.00305636,4.14260501 6.12708645,4.06818695 6.22631052,3.91935084 L6.99529708,2.53021384 C6.87126699,2.70385596 6.7472369,2.753468 6.4743707,2.753468 L0.595344432,2.753468 L0.24806018,3.37361845 C0.173642126,3.57206659 0.12403009,3.74570872 0.223254162,3.94415686 L0.223254162,3.94415686 Z"></path>
                    </g>
                    <g id="Shape">
                        <path d="M7.96273178,0.198448144 L2.13331755,0.198448144 L1.31471895,1.58758515 L7.19374522,1.58758515 C7.39219337,1.58758515 7.54102947,1.53797312 7.64025355,1.38913701 L8.43404612,0 C8.33482205,0.148836108 8.18598594,0.198448144 7.96273178,0.198448144 L7.96273178,0.198448144 Z"></path>
                        <path d="M0.223254162,3.94415686 C0.322478234,4.09299297 0.471314342,4.14260501 0.644956468,4.14260501 L5.7798022,4.14260501 C6.00305636,4.14260501 6.12708645,4.06818695 6.22631052,3.91935084 L6.99529708,2.53021384 C6.87126699,2.70385596 6.7472369,2.753468 6.4743707,2.753468 L0.595344432,2.753468 L0.24806018,3.37361845 C0.173642126,3.57206659 0.12403009,3.74570872 0.223254162,3.94415686 L0.223254162,3.94415686 Z"></path>
                    </g>
                </g>
                <path d="M1.04185276,6.62320681 C1.11627081,6.72243088 1.2403009,6.77204292 1.43874904,6.77204292 L2.00928746,6.77204292 L2.82788605,5.38290591 L1.48836108,5.38290591 L1.16588285,5.95344432 L1.11627081,6.05266839 C0.99224072,6.27592256 0.942628684,6.44956468 1.04185276,6.62320681 L1.04185276,6.62320681 L1.04185276,6.62320681 Z" id="Shape" fill="#00396B"></path>
                <path d="M4.04338093,1.01704674 L3.69609668,0.396896288 C3.54726057,0.173642126 3.47284252,0.074418054 3.24958836,0.074418054 C3.07594623,0.074418054 2.95191614,0.198448144 2.87749809,0.347284252 L0.347284252,4.78756147 C0.272866198,4.93639758 0.223254162,5.11003971 0.297672216,5.28368183 L1.06665877,6.64801283 C0.967434702,6.44956468 1.01704674,6.27592256 1.14107683,6.07747441 L4.04338093,1.01704674 L4.04338093,1.01704674 Z" id="Shape" fill="#00AEEF"></path>
            </g>
            <path d="M128.271919,35.091228 C128.346337,33.8261211 129.214548,33.3051947 130.430043,33.3051947 C131.372671,33.3051947 132.389718,33.6028669 132.389718,35.01681 L132.389718,37.844696 C132.389718,38.0927562 132.513748,38.2415923 132.761808,38.2415923 C132.836226,38.2415923 132.910644,38.2167863 132.960257,38.1919803 L132.960257,38.7377127 C132.81142,38.7625187 132.712196,38.7873247 132.538554,38.7873247 C131.868792,38.7873247 131.769568,38.4152344 131.769568,37.844696 L131.744762,37.844696 C131.298253,38.5392645 130.826939,38.9361608 129.785086,38.9361608 C128.792845,38.9361608 127.999053,38.4400404 127.999053,37.3733817 C127.999053,35.8602146 129.462608,35.8106025 130.876551,35.6617664 C131.422283,35.5873484 131.719956,35.5377363 131.719956,34.9423919 C131.719956,34.0493753 131.099805,33.8509271 130.330819,33.8509271 C129.51222,33.8509271 128.916876,34.2230174 128.89207,35.091228 L128.271919,35.091228 L128.271919,35.091228 Z M131.744762,35.8850206 C131.645538,36.0338567 131.347865,36.0834687 131.174223,36.1330808 C130.057952,36.3315289 128.693621,36.3315289 128.693621,37.3733817 C128.693621,38.0183381 129.26416,38.4400404 129.88431,38.4400404 C130.876551,38.4400404 131.769568,37.81989 131.744762,36.7532312 L131.744762,35.8850206 Z M133.704437,33.4540308 L134.349394,33.4540308 L134.349394,34.3718535 L134.3742,34.3718535 C134.62226,33.726897 135.316828,33.3051947 136.085815,33.3051947 C137.598982,33.3051947 138.04549,34.0989873 138.04549,35.3640942 L138.04549,38.8121307 L137.400534,38.8121307 L137.400534,35.4633183 C137.400534,34.5454956 137.102862,33.8509271 136.036203,33.8509271 C134.99435,33.8509271 134.3742,34.6447197 134.349394,35.6865725 L134.349394,38.8121307 L133.704437,38.8121307 L133.704437,33.4540308 Z M142.609798,36.3563349 C142.584991,37.869502 143.676456,38.3408164 145.015981,38.3408164 C145.784968,38.3408164 146.975657,37.9191141 146.975657,36.8276493 C146.975657,35.9842447 146.132252,35.6617664 145.46249,35.4881243 L143.825292,35.091228 C142.957082,34.8679739 142.163289,34.4710776 142.163289,33.3051947 C142.163289,32.5858202 142.634604,31.2214892 144.718309,31.2214892 C146.181864,31.2214892 147.471777,32.0152818 147.446971,33.5284489 L146.752403,33.5284489 C146.70279,32.3873721 145.784968,31.8168336 144.743115,31.8168336 C143.77568,31.8168336 142.882664,32.1889239 142.882664,33.2803887 C142.882664,33.9749572 143.40359,34.2726294 143.998935,34.4214655 L145.809774,34.8679739 C146.851627,35.1408401 147.719837,35.6121544 147.719837,36.8276493 C147.719837,37.3237696 147.521389,38.9361608 144.891951,38.9361608 C143.130724,38.9361608 141.865617,38.1423682 141.940035,36.3563349 L142.609798,36.3563349 L142.609798,36.3563349 Z M154.219014,33.627673 C153.970954,32.4865961 153.028325,31.8416397 151.961666,31.8416397 C150.001991,31.8416397 149.183392,33.4788368 149.183392,35.091228 C149.183392,36.7036192 150.001991,38.3408164 151.961666,38.3408164 C153.325997,38.3408164 154.194208,37.2741576 154.343044,35.9594386 L155.037613,35.9594386 C154.839164,37.770278 153.698088,38.9361608 151.961666,38.9361608 C149.629901,38.9361608 148.464018,37.1005155 148.464018,35.091228 C148.464018,33.0819406 149.629901,31.2462952 151.961666,31.2462952 C153.350803,31.2462952 154.73994,32.0896998 154.938388,33.652479 L154.219014,33.652479 L154.219014,33.627673 Z M158.063947,31.3951313 L158.857739,31.3951313 L161.760043,38.7873247 L161.015863,38.7873247 L160.122846,36.480365 L156.749228,36.480365 L155.856211,38.7873247 L155.112031,38.7873247 L158.063947,31.3951313 Z M156.947676,35.8850206 L159.84998,35.8850206 L158.411231,32.0896998 L156.947676,35.8850206 Z M168.953789,35.1408401 C168.780147,34.3470475 168.284026,33.8509271 167.440622,33.8509271 C166.175515,33.8509271 165.555364,34.9920039 165.555364,36.1330808 C165.555364,37.2741576 166.175515,38.4152344 167.440622,38.4152344 C168.25922,38.4152344 168.904177,37.795084 169.003401,36.9020673 L169.648357,36.9020673 C169.474715,38.1919803 168.63131,38.9857728 167.440622,38.9857728 C165.803424,38.9857728 164.910408,37.6958599 164.910408,36.1578868 C164.910408,34.6199137 165.803424,33.3300007 167.440622,33.3300007 C168.581698,33.3300007 169.449909,33.9501512 169.598745,35.1656461 L168.953789,35.1656461 L168.953789,35.1408401 Z M175.353741,36.1330808 C175.353741,37.6710539 174.460725,38.9609668 172.823527,38.9609668 C171.18633,38.9609668 170.293314,37.6710539 170.293314,36.1330808 C170.293314,34.5951077 171.18633,33.3051947 172.823527,33.3051947 C174.460725,33.3051947 175.353741,34.5951077 175.353741,36.1330808 Z M170.93827,36.1330808 C170.93827,37.2741576 171.558421,38.4152344 172.823527,38.4152344 C174.088634,38.4152344 174.708785,37.2741576 174.708785,36.1330808 C174.708785,34.9920039 174.088634,33.8509271 172.823527,33.8509271 C171.583227,33.8509271 170.93827,34.9920039 170.93827,36.1330808 Z M176.122728,33.4540308 L176.718072,33.4540308 L176.718072,34.3470475 L176.742878,34.3470475 C177.090163,33.702091 177.635895,33.2803887 178.504106,33.2803887 C179.198674,33.2803887 179.843631,33.627673 180.042079,34.3222415 C180.364557,33.627673 181.034319,33.2803887 181.753694,33.2803887 C182.919577,33.2803887 183.514921,33.9005392 183.514921,35.1656461 L183.514921,38.7873247 L182.869965,38.7873247 L182.869965,35.1904521 C182.869965,34.2974354 182.547486,33.8261211 181.604858,33.8261211 C180.463781,33.8261211 180.166109,34.7687498 180.166109,35.7609905 L180.166109,38.7873247 L179.521152,38.7873247 L179.521152,35.1656461 C179.521152,34.4462716 179.22348,33.8509271 178.404881,33.8509271 C177.263805,33.8509271 176.817296,34.6943317 176.817296,35.8106025 L176.817296,38.7873247 L176.122728,38.7873247 L176.122728,33.4540308 Z M184.755222,33.4540308 L185.350567,33.4540308 L185.350567,34.4710776 L185.375373,34.4710776 C185.673045,33.751703 186.417225,33.3051947 187.285436,33.3051947 C188.922633,33.3051947 189.69162,34.6199137 189.69162,36.1330808 C189.69162,37.6462479 188.922633,38.9609668 187.285436,38.9609668 C186.491643,38.9609668 185.697851,38.5640705 185.424985,37.795084 L185.400179,37.795084 L185.400179,40.7966122 L184.755222,40.7966122 L184.755222,33.4540308 Z M187.285436,33.8509271 C185.846687,33.8509271 185.400179,34.9175859 185.400179,36.1330808 C185.400179,37.2493516 185.896299,38.4152344 187.285436,38.4152344 C188.525737,38.4152344 189.046663,37.2493516 189.046663,36.1330808 C189.021857,35.01681 188.525737,33.8509271 187.285436,33.8509271 Z M190.634248,35.091228 C190.708666,33.8261211 191.576877,33.3051947 192.792372,33.3051947 C193.735001,33.3051947 194.752047,33.6028669 194.752047,35.01681 L194.752047,37.844696 C194.752047,38.0927562 194.876077,38.2415923 195.124138,38.2415923 C195.198556,38.2415923 195.272974,38.2167863 195.322586,38.1919803 L195.322586,38.7377127 C195.17375,38.7625187 195.074526,38.7873247 194.900883,38.7873247 C194.231121,38.7873247 194.131897,38.4152344 194.131897,37.844696 L194.107091,37.844696 C193.660583,38.5392645 193.189268,38.9361608 192.147415,38.9361608 C191.155175,38.9361608 190.361382,38.4400404 190.361382,37.3733817 C190.361382,35.8602146 191.824937,35.8106025 193.23888,35.6617664 C193.784613,35.5873484 194.082285,35.5377363 194.082285,34.9423919 C194.082285,34.0493753 193.462134,33.8509271 192.693148,33.8509271 C191.874549,33.8509271 191.279205,34.2230174 191.254399,35.091228 L190.634248,35.091228 L190.634248,35.091228 Z M194.131897,35.8850206 C194.032673,36.0338567 193.735001,36.0834687 193.561358,36.1330808 C192.445088,36.3315289 191.080757,36.3315289 191.080757,37.3733817 C191.080757,38.0183381 191.651295,38.4400404 192.271446,38.4400404 C193.263686,38.4400404 194.156703,37.81989 194.131897,36.7532312 L194.131897,35.8850206 Z M196.066766,33.4540308 L196.711723,33.4540308 L196.711723,34.3718535 L196.736529,34.3718535 C196.984589,33.726897 197.679157,33.3051947 198.448144,33.3051947 C199.961311,33.3051947 200.407819,34.0989873 200.407819,35.3640942 L200.407819,38.8121307 L199.762863,38.8121307 L199.762863,35.4633183 C199.762863,34.5454956 199.465191,33.8509271 198.398532,33.8509271 C197.356679,33.8509271 196.736529,34.6447197 196.711723,35.6865725 L196.711723,38.8121307 L196.066766,38.8121307 L196.066766,33.4540308 Z M201.052776,33.4540308 L201.747344,33.4540308 L203.508572,38.0183381 L205.145769,33.4540308 L205.790725,33.4540308 L203.45896,39.6307293 C203.086869,40.523746 202.863615,40.7966122 202.045017,40.7966122 C201.796956,40.7966122 201.64812,40.7966122 201.548896,40.7470001 L201.548896,40.2012677 C201.697732,40.2260737 201.846569,40.2508798 201.995405,40.2508798 C202.565943,40.2508798 202.714779,39.9035955 202.938033,39.4074752 L203.161287,38.7873247 L201.052776,33.4540308 Z" id="an-SCA-Company" fill="#808285" sketch:type="MSShapeGroup"></path>
            <g id="Wausau-Paper" transform="translate(0.000000, 2.000000)" sketch:type="MSShapeGroup">
                <path d="M176.742878,0.62015045 L188.128841,0.62015045 L188.128841,1.63719719 L177.883955,1.63719719 L177.883955,9.84798915 L186.814122,9.84798915 L186.814122,10.8650359 L177.883955,10.8650359 L177.883955,19.5471422 L188.252871,19.5471422 L188.252871,20.5641889 L176.742878,20.5641889 L176.742878,0.62015045 Z M148.14154,0.49612036 L149.00975,0.49612036 L157.146124,20.613801 L155.881017,20.613801 L153.62367,15.0820589 L143.378784,15.0820589 L141.121436,20.613801 L139.905942,20.613801 L148.14154,0.49612036 Z M153.276385,14.0898182 L148.51363,2.10851153 L143.750874,14.0898182 L153.276385,14.0898182 Z M140.526092,6.92087902 C140.526092,10.5921697 137.822236,13.2216076 133.034675,13.2216076 L129.537026,13.2216076 L129.537026,20.613801 L128.395949,20.613801 L128.395949,0.62015045 L133.034675,0.62015045 C137.54937,0.62015045 140.526092,3.05114021 140.526092,6.92087902 Z M139.335403,6.92087902 C139.335403,3.49764854 136.755577,1.63719719 133.233123,1.63719719 L129.537026,1.63719719 L129.537026,12.2045609 L133.059481,12.2045609 C137.276504,12.2045609 139.335403,9.9224072 139.335403,6.92087902 Z M172.501049,6.92087902 C172.501049,10.5921697 169.797193,13.2216076 165.009632,13.2216076 L161.511983,13.2216076 L161.511983,20.613801 L160.370906,20.613801 L160.370906,0.62015045 L165.009632,0.62015045 C169.524327,0.62015045 172.501049,3.05114021 172.501049,6.92087902 Z M171.31036,6.92087902 C171.31036,3.49764854 168.705728,1.63719719 165.20808,1.63719719 L161.511983,1.63719719 L161.511983,12.2045609 L165.034438,12.2045609 C169.251461,12.2045609 171.31036,9.9224072 171.31036,6.92087902 Z M204.748873,6.37514663 C204.748873,11.6340224 199.837281,12.2293669 199.093101,12.3037849 L205.517859,20.613801 L204.004692,20.613801 L197.72877,12.427815 L193.809419,12.427815 L193.809419,20.613801 L192.668342,20.613801 L192.668342,0.62015045 L197.579933,0.62015045 C203.111675,0.62015045 204.748873,3.9937689 204.748873,6.37514663 Z M203.632602,6.52398274 C203.632602,3.69609668 201.64812,1.66200321 197.902412,1.66200321 L193.809419,1.66200321 L193.809419,11.3859623 L197.902412,11.3859623 C201.375254,11.3859623 203.632602,9.57512295 203.632602,6.52398274 Z M210.751929,6.59840079 C208.891478,6.59840079 207.576759,5.20926378 207.576759,3.34881243 C207.576759,1.38913701 209.040314,0.099224072 210.751929,0.099224072 C212.438738,0.099224072 213.927099,1.38913701 213.927099,3.34881243 C213.927099,5.30848785 212.463544,6.59840079 210.751929,6.59840079 Z M210.751929,0.694568504 C209.337986,0.694568504 208.246521,1.7860333 208.246521,3.37361845 C208.246521,4.83717351 209.18915,6.05266839 210.751929,6.05266839 C212.141066,6.05266839 213.232531,4.9612036 213.232531,3.37361845 C213.232531,1.7860333 212.141066,0.694568504 210.751929,0.694568504 L210.751929,0.694568504 Z M210.106972,5.20926378 L209.511628,5.20926378 L209.511628,1.63719719 L210.875959,1.63719719 C211.74417,1.63719719 212.190678,1.9348694 212.190678,2.67904994 C212.190678,3.32400641 211.793782,3.59687261 211.248049,3.67129066 L212.24029,5.2340698 L211.595334,5.2340698 L210.677511,3.69609668 L210.106972,3.69609668 L210.106972,5.20926378 L210.106972,5.20926378 Z M210.776735,3.1751703 C211.223243,3.1751703 211.62014,3.12555827 211.62014,2.60463189 C211.62014,2.18292958 211.198437,2.10851153 210.851153,2.10851153 L210.106972,2.10851153 L210.106972,3.15036429 L210.776735,3.15036429 L210.776735,3.1751703 Z" id="Paper" fill="#252525"></path>
                <path d="M61.5685367,0.62015045 L61.5685367,13.0975775 C61.5685367,16.3223598 59.7576974,18.0835871 56.9298113,18.0835871 C53.6554169,18.0835871 52.315892,15.9998816 52.315892,13.0975775 L52.315892,0.62015045 L48.8182434,0.62015045 L48.8182434,12.8247113 C48.8182434,18.0835871 51.4724874,21.1099213 56.433691,21.1099213 C59.7328914,21.1099213 61.4445066,18.9269917 61.6677608,18.6045135 L61.6677608,20.613801 L65.0413792,20.613801 L65.0413792,0.62015045 L61.5685367,0.62015045 Z M119.391365,0.62015045 L119.391365,13.0975775 C119.391365,16.3223598 117.580525,18.0835871 114.752639,18.0835871 C111.478245,18.0835871 110.13872,15.9998816 110.13872,13.0975775 L110.13872,0.62015045 L106.641071,0.62015045 L106.641071,12.8247113 C106.641071,18.0835871 109.295315,21.1099213 114.256519,21.1099213 C117.555719,21.1099213 119.267335,18.9269917 119.490589,18.6045135 L119.490589,20.613801 L122.864207,20.613801 L122.864207,0.62015045 L119.391365,0.62015045 Z M79.2056155,15.5285673 C79.2056155,17.0417344 77.7420604,18.0835871 75.4847128,18.0835871 C72.2103184,18.0835871 70.5731212,16.0742997 70.3498671,15.8014335 L67.8940713,18.0587811 C68.1421315,18.3316473 70.300255,21.1099213 75.1870406,21.1099213 C80.3714983,21.1099213 82.8024881,18.5052894 82.8024881,15.2557011 C82.8024881,11.4851863 79.6025118,9.99682526 76.4769535,8.73171834 C73.8723216,7.66505956 72.0614823,6.87126699 72.0614823,5.30848785 C72.0614823,3.91935084 73.3265892,3.15036429 75.2366526,3.15036429 C78.2877928,3.15036429 80.2226622,5.28368183 80.4707224,5.53174202 L82.8024881,3.1751703 C82.60404,2.95191614 80.0986321,0.12403009 75.6087429,0.12403009 C70.3746731,0.12403009 68.3901916,2.85269207 68.3901916,5.75499618 C68.3901916,9.62473499 72.1607064,10.7161998 74.8645623,11.8324706 C77.5684183,12.9487414 79.2056155,13.9657881 79.2056155,15.5285673 Z M11.8324706,0.62015045 L7.66505956,15.5781793 L3.57206659,0.62015045 L0.049612036,0.62015045 L5.55654803,20.5889949 L9.40148082,20.5889949 L13.5192798,6.07747441 L17.6122728,20.5889949 L21.5812357,20.5889949 L27.0881717,0.62015045 L23.7641652,0.62015045 L19.7455903,15.5781793 L15.4789552,0.62015045 L11.8324706,0.62015045 Z M89.2520528,14.2882664 C89.2520528,12.1797548 90.6659958,10.6169757 93.9403902,10.6169757 C96.8178883,10.6169757 99.0256239,11.7084405 99.199266,11.7580525 L99.199266,12.403009 C99.199266,14.9580289 97.810129,18.0339751 93.8907781,18.0339751 C90.88925,18.0339751 89.2520528,16.1487177 89.2520528,14.2882664 Z M99.8442225,18.5797075 C100.166701,19.7455903 100.960493,20.663413 101.506226,20.9858912 C101.555838,20.9362792 104.358918,18.5549015 104.358918,18.5549015 C103.887603,18.0587811 102.721721,16.7192561 102.721721,13.5688918 L102.721721,8.21079196 C102.721721,3.84493279 99.7449984,0.12403009 93.9900022,0.12403009 C89.2768588,0.12403009 87.0443172,2.95191614 86.6474209,3.42323048 L89.0039926,5.53174202 C89.3264708,5.15965174 90.8396379,3.19997632 93.8907781,3.19997632 C97.785323,3.19997632 99.248878,5.85422025 99.248878,8.01234382 L99.248878,8.65730028 C99.1000419,8.60768825 96.9667244,7.59064151 93.8163601,7.59064151 C88.160588,7.59064151 85.6551802,10.7658118 85.6551802,13.9657881 C85.6551802,17.8355269 88.4334542,21.0851153 93.8659721,21.0851153 C97.9341591,21.1099213 99.5465503,18.9269917 99.8442225,18.5797075 Z M31.4292248,14.2882664 C31.4292248,12.1797548 32.8431678,10.6169757 36.1175622,10.6169757 C38.9950603,10.6169757 41.2027959,11.7084405 41.376438,11.7580525 L41.376438,12.403009 C41.376438,14.9332228 39.987301,18.0339751 36.0679502,18.0339751 C33.066422,18.0339751 31.4292248,16.1487177 31.4292248,14.2882664 Z M42.0213945,18.5797075 C42.3438727,19.7455903 43.1376653,20.663413 43.6833977,20.9858912 C43.7330097,20.9362792 46.5360898,18.5549015 46.5360898,18.5549015 C46.0647754,18.0587811 44.8988926,16.7192561 44.8988926,13.5688918 L44.8988926,8.21079196 C44.8988926,3.84493279 41.9221704,0.12403009 36.1671743,0.12403009 C31.4540308,0.12403009 29.2214892,2.95191614 28.8245929,3.42323048 L31.1811646,5.53174202 C31.5036429,5.15965174 33.01681,3.19997632 36.0431442,3.19997632 C39.937689,3.19997632 41.401244,5.85422025 41.401244,8.01234382 L41.401244,8.65730028 C41.2524079,8.60768825 39.1190904,7.59064151 35.9687261,7.59064151 C30.312954,7.59064151 27.8075462,10.7658118 27.8075462,13.9657881 C27.8075462,17.8355269 30.5858202,21.0851153 36.0183381,21.0851153 C40.1113311,21.1099213 41.7237223,18.9269917 42.0213945,18.5797075 L42.0213945,18.5797075 Z" id="Wausau" fill="#00853E"></path>
            </g>
        </g>
    </g>
</svg>