<?xml version="1.0" encoding="UTF-8" standalone="no"?>
<svg width="224px" height="44px" viewBox="0 0 224 44" version="1.1" xmlns="http://www.w3.org/2000/svg" xmlns:xlink="http://www.w3.org/1999/xlink" xmlns:sketch="http://www.bohemiancoding.com/sketch/ns">
    <!-- Generator: Sketch 3.4.4 (17249) - http://www.bohemiancoding.com/sketch -->
    <title>logo-white</title>
    <desc>Created with Sketch.</desc>
    <defs></defs>
    <g id="Page-1" stroke="none" stroke-width="1" fill="none" fill-rule="evenodd" sketch:type="MSPage">
        <g id="logo-white" sketch:type="MSLayerGroup" transform="translate(0.000000, -0.600000)" fill="#FFFFFF">
            <path d="M212.86044,41.3423446 C213.257337,41.6648228 213.753457,41.7888529 214.249578,41.7888529 C215.068176,41.7888529 215.589102,41.3423446 215.589102,40.6973881 C215.589102,40.2012677 215.341042,39.9035955 214.696086,39.7299534 C214.621668,39.7051474 214.199965,39.6059233 214.100741,39.5811173 C213.778263,39.4818932 213.679039,39.3578631 213.679039,39.159415 C213.679039,38.9361608 213.927099,38.7625187 214.249578,38.7625187 C214.472832,38.7625187 214.621668,38.8121307 214.79531,38.8865488 C215.1674,39.0353849 215.365848,38.9113548 215.489878,38.6136826 C215.1674,38.3408164 214.770504,38.1919803 214.224771,38.1919803 C213.505397,38.1919803 212.984471,38.6384886 212.984471,39.233833 C212.984471,39.7299534 213.282143,40.0276256 213.803069,40.1764617 C213.902293,40.2012677 214.274384,40.3004918 214.348802,40.3252978 C214.820116,40.4245219 214.894534,40.573358 214.894534,40.7718061 C214.894534,41.0198663 214.67128,41.2183145 214.249578,41.2183145 C214.001517,41.2183145 213.778263,41.1438964 213.530203,41.0446723 C213.306949,40.9206422 213.009277,40.9702543 212.86044,41.3423446 Z M219.260393,38.7129066 C218.962721,38.4152344 218.590631,38.1671743 217.920868,38.1671743 C216.903821,38.1671743 216.110029,38.9361608 216.110029,39.9780136 C216.110029,40.9454483 216.829403,41.7888529 217.896062,41.7888529 C218.491407,41.7888529 218.962721,41.5904047 219.334811,41.1687024 L218.913109,40.7470001 C218.640243,41.0198663 218.34257,41.2183145 217.920868,41.2183145 C217.275912,41.2183145 216.804597,40.6973881 216.804597,40.0028196 C216.804597,39.3082511 217.275912,38.8121307 217.920868,38.8121307 C218.144122,38.8121307 218.34257,38.8617428 218.516213,38.9857728 C218.789079,39.134609 219.086751,39.0601909 219.260393,38.7129066 Z M221.765801,38.2415923 L221.592159,38.2415923 C221.269681,38.2415923 221.120844,38.2663983 220.947202,38.7129066 L219.632483,41.7640469 L220.302246,41.7640469 L220.64953,40.9206422 L222.237115,40.9206422 L222.5844,41.7640469 L223.303774,41.7640469 L221.765801,38.2415923 Z M221.989055,40.3252978 L220.872784,40.3252978 L221.418517,39.0105789 L221.989055,40.3252978 Z M221.244875,43.351632 C221.02162,43.5748862 220.624724,43.9221704 220.40147,44.0462005 C220.15341,44.1702306 220.078992,44.0958126 220.128604,43.8725584 C220.203022,43.5996922 220.40147,43.1531839 220.575112,42.8555117 C220.64953,42.7314816 220.699142,42.5826455 220.599918,42.5578394 C220.500694,42.5082274 220.40147,42.5826455 220.27744,42.8058996 C220.15341,43.0291538 219.930156,43.5996922 219.855738,43.8973644 C219.806126,44.1950366 219.880544,44.3438727 220.078992,44.3438727 C220.327052,44.3438727 220.798366,43.9965885 221.170457,43.6493042 C221.145651,43.7733343 221.046426,44.0710065 221.02162,44.1454246 C220.996814,44.2446487 221.120844,44.2942607 221.195263,44.1702306 C221.294487,43.9965885 221.443323,43.6244982 221.468129,43.4260501 C221.492935,43.277214 221.368905,43.2276019 221.244875,43.351632 Z M221.468129,42.9795417 C221.542547,42.9795417 221.616965,42.9051237 221.641771,42.8307056 C221.641771,42.7562876 221.592159,42.6818695 221.517741,42.6818695 C221.443323,42.6818695 221.368905,42.7562876 221.368905,42.8307056 C221.344099,42.9051237 221.393711,42.9795417 221.468129,42.9795417 Z M219.310005,42.5330334 C219.161169,42.5330334 219.012333,42.6074515 218.913109,42.8307056 C218.838691,42.9547357 218.789079,43.1531839 218.714661,43.351632 C218.565825,43.351632 218.416989,43.326826 218.268152,43.30202 C218.144122,43.277214 218.09451,43.401244 218.144122,43.4756621 C218.193734,43.5252741 218.21854,43.6244982 218.193734,43.7485283 C218.144122,43.8973644 218.044898,44.0213945 217.896062,43.9965885 C217.772032,43.9717825 217.72242,43.8229464 217.772032,43.6244982 C217.821644,43.4508561 217.920868,43.351632 218.044898,43.30202 C218.168928,43.2524079 218.144122,43.1035718 217.995286,43.1283779 C217.796838,43.1779899 217.59839,43.376438 217.548778,43.6244982 C217.47436,43.9221704 217.623196,44.1454246 217.871256,44.1702306 C218.09451,44.1702306 218.317764,44.0213945 218.392183,43.7237223 C218.416989,43.6493042 218.392183,43.5500802 218.367376,43.4756621 C218.466601,43.5004681 218.541019,43.5004681 218.640243,43.5004681 C218.541019,43.7981403 218.466601,44.1206186 218.416989,44.3686788 C218.392183,44.4679028 218.441795,44.4927088 218.466601,44.4927088 C218.491407,44.4927088 218.541019,44.4679028 218.541019,44.4182908 C218.615437,44.1454246 218.714661,43.8229464 218.838691,43.5004681 C219.061945,43.4756621 219.285199,43.4260501 219.458841,43.351632 C219.558065,43.30202 219.558065,43.2027959 219.458841,43.2276019 C219.285199,43.277214 219.086751,43.30202 218.913109,43.326826 C218.987527,43.1779899 219.037139,43.0291538 219.111557,42.8803177 C219.161169,42.7810936 219.210781,42.7314816 219.260393,42.7066755 C219.334811,42.6818695 219.384423,42.6818695 219.434035,42.7314816 C219.483647,42.7810936 219.582871,42.7314816 219.533259,42.6322575 C219.533259,42.5826455 219.434035,42.5082274 219.310005,42.5330334 Z M223.378192,43.9221704 C223.278968,43.9717825 223.154938,44.0213945 223.030908,44.0213945 C222.882072,44.0213945 222.758042,43.9965885 222.70843,43.8973644 C223.08052,43.8229464 223.303774,43.6244982 223.32858,43.4260501 C223.32858,43.30202 223.278968,43.1531839 223.030908,43.1779899 C222.95649,43.1779899 222.906878,43.2027959 222.83246,43.2276019 C222.658818,43.277214 222.361145,43.326826 222.088279,43.326826 C222.162697,43.1779899 222.212309,43.0291538 222.286727,42.9051237 C222.385951,42.7066755 222.534788,42.7066755 222.609206,42.7562876 C222.658818,42.8058996 222.733236,42.7562876 222.683624,42.6818695 C222.634012,42.6074515 222.534788,42.5578394 222.410757,42.5578394 C222.261921,42.5578394 222.113085,42.6322575 222.013861,42.8555117 C221.964249,42.9795417 221.889831,43.1531839 221.815413,43.351632 L221.666577,43.351632 C221.567353,43.351632 221.567353,43.5500802 221.691383,43.5500802 L221.765801,43.5500802 C221.666577,43.8725584 221.567353,44.2198426 221.542547,44.4430968 C221.517741,44.5423209 221.567353,44.5671269 221.592159,44.5671269 C221.616965,44.5671269 221.666577,44.5423209 221.666577,44.4927088 C221.740995,44.1950366 221.865025,43.8477524 221.989055,43.5252741 C222.187503,43.5004681 222.410757,43.4756621 222.559594,43.4260501 C222.485175,43.5252741 222.410757,43.6493042 222.410757,43.7981403 C222.385951,44.1206186 222.634012,44.2694547 222.882072,44.2446487 C223.105326,44.2446487 223.303774,44.1206186 223.402998,44.0213945 C223.477416,43.9469764 223.45261,43.8725584 223.378192,43.9221704 Z M223.105326,43.326826 C223.154938,43.376438 223.154938,43.5252741 223.006102,43.6244982 C222.906878,43.6989163 222.782848,43.7485283 222.683624,43.7733343 C222.683624,43.6493042 222.733236,43.5004681 222.83246,43.401244 C222.931684,43.30202 223.055714,43.30202 223.105326,43.326826 Z M216.234059,43.0787658 C216.110029,43.1035718 215.985999,43.2524079 215.886775,43.376438 C215.837163,43.4260501 215.787551,43.5004681 215.737939,43.5748862 C215.762745,43.4756621 215.787551,43.376438 215.787551,43.30202 C215.812357,43.1779899 215.638715,43.1283779 215.564296,43.277214 C215.41546,43.5252741 215.192206,43.8229464 215.018564,43.9469764 C214.944146,43.9965885 214.894534,44.0213945 214.844922,44.0213945 C214.79531,44.0213945 214.770504,43.9717825 214.770504,43.8973644 C214.770504,43.8229464 214.79531,43.7485283 214.820116,43.6741102 C214.869728,43.5748862 214.820116,43.5500802 214.745698,43.5500802 C214.67128,43.5500802 214.646474,43.5996922 214.596862,43.6493042 C214.54725,43.7485283 214.497638,43.8229464 214.42322,43.9221704 C214.348802,43.9965885 214.249578,44.0462005 214.199965,43.9965885 C214.150353,43.9717825 214.125547,43.8973644 214.150353,43.7981403 C214.175159,43.6244982 214.274384,43.4508561 214.398414,43.376438 C214.472832,43.326826 214.54725,43.30202 214.596862,43.326826 C214.646474,43.326826 214.696086,43.351632 214.745698,43.376438 C214.770504,43.401244 214.820116,43.401244 214.844922,43.376438 C214.844922,43.351632 214.869728,43.326826 214.869728,43.30202 C214.844922,43.2276019 214.770504,43.1779899 214.67128,43.1531839 C214.497638,43.1283779 214.29919,43.1779899 214.051129,43.4260501 C213.976711,43.5252741 213.902293,43.6493042 213.877487,43.7733343 C213.827875,44.0213945 213.951905,44.1950366 214.150353,44.1950366 C214.249578,44.1950366 214.398414,44.1454246 214.54725,43.9469764 C214.54725,44.0462005 214.596862,44.1454246 214.67128,44.1702306 C214.770504,44.1950366 214.894534,44.1702306 214.993758,44.0710065 C215.1674,43.9221704 215.316236,43.7237223 215.440266,43.5500802 C215.41546,43.6741102 215.316236,43.9469764 215.29143,44.0710065 C215.241818,44.1950366 215.41546,44.2446487 215.465072,44.0958126 C215.564296,43.8725584 215.713133,43.6741102 215.837163,43.5252741 C215.961193,43.376438 216.110029,43.277214 216.184447,43.2524079 C216.258865,43.2276019 216.308477,43.1779899 216.308477,43.1283779 C216.382895,43.1035718 216.333283,43.0539598 216.234059,43.0787658 Z M217.003046,43.9717825 C216.903821,44.0462005 216.804597,44.0958126 216.655761,44.0958126 C216.482119,44.0958126 216.358089,44.0213945 216.333283,43.8725584 C216.705373,43.8973644 216.928627,43.6989163 216.953433,43.5004681 C216.953433,43.376438 216.903821,43.2276019 216.680567,43.2276019 C216.407701,43.2276019 216.110029,43.5004681 216.085223,43.7981403 C216.060417,44.0958126 216.258865,44.2446487 216.531731,44.2446487 C216.754985,44.2446487 216.928627,44.1454246 217.027852,44.0462005 C217.127076,43.9965885 217.077464,43.9221704 217.003046,43.9717825 Z M217.272763,29.9369807 L214.29919,35.041616 C214.224771,35.1904521 214.175159,35.3640942 214.249578,35.5129303 L215.04337,36.9020673 C214.944146,36.7036192 214.993758,36.5299771 215.092982,36.3315289 L218.06672,31.3009565 L219.161169,33.1811646 L220.723948,33.1811646 L217.796838,28.145543 C217.72242,27.9967069 217.59839,27.8726768 217.375136,27.8726768 L215.812357,27.8726768 C216.035611,27.8726768 216.134835,27.9719009 216.258865,28.195155 L217.272763,29.9369807 Z M216.779791,43.401244 C216.829403,43.4508561 216.804597,43.5748862 216.680567,43.6493042 C216.581343,43.6989163 216.482119,43.7237223 216.358089,43.7237223 C216.382895,43.6244982 216.432507,43.5004681 216.506925,43.4508561 C216.606149,43.376438 216.730179,43.376438 216.779791,43.401244 Z M214.001517,43.0043478 C213.951905,42.9299297 213.852681,42.8555117 213.679039,42.8803177 C213.381367,42.8803177 213.009277,43.1531839 212.86044,43.6493042 C212.73641,44.0462005 212.885247,44.3934848 213.232531,44.3686788 C213.356561,44.3686788 213.505397,44.3190667 213.604621,44.2446487 C213.629427,44.2198426 213.679039,44.1950366 213.679039,44.1950366 C213.778263,44.1206186 213.803069,44.0710065 213.852681,43.9965885 C213.902293,43.9221704 213.827875,43.8229464 213.753457,43.8973644 C213.679039,43.9965885 213.629427,44.0213945 213.505397,44.0710065 C213.455785,44.0958126 213.356561,44.1206186 213.331755,44.1206186 C213.232531,44.1206186 213.158113,44.0958126 213.133307,44.0213945 C213.083695,43.8973644 213.108501,43.6244982 213.232531,43.401244 C213.356561,43.1779899 213.505397,43.0787658 213.604621,43.0787658 C213.679039,43.0787658 213.753457,43.1035718 213.803069,43.1531839 C213.827875,43.2027959 213.877487,43.2027959 213.927099,43.2027959 C214.001517,43.1779899 214.026323,43.0787658 214.001517,43.0043478 Z M218.863497,29.9563823 L219.508453,28.8401115 L219.161169,28.219961 C219.012333,27.9967069 218.937915,27.8974828 218.714661,27.8974828 C218.541019,27.8974828 218.416989,28.0215129 218.34257,28.170349 L218.09451,28.6168573 L218.863497,29.9563823 Z M223.278968,32.9827165 C223.353386,32.8338804 223.303774,32.6602383 223.229356,32.5362082 L220.699142,28.170349 C220.624724,28.0215129 220.500694,27.8974828 220.27744,27.8974828 L218.714661,27.8974828 C218.937915,27.8974828 219.037139,27.9967069 219.161169,28.219961 L222.038667,33.2059706 L222.782848,33.2059706 C223.006102,33.2059706 223.154938,33.1563586 223.278968,32.9827165 Z M221.567353,34.5951077 L220.004574,34.5951077 L220.699142,35.7609905 L221.368905,35.7609905 C221.616965,35.7609905 221.765801,35.7113785 221.889831,35.5377363 C221.989055,35.3640942 221.964249,35.1904521 221.865025,35.041616 L221.567353,34.5951077 Z M214.127007,33.1811646 L215.41546,33.1811646 L214.596862,34.5703016 L214.026323,34.5703016 C213.827875,34.5703016 213.703845,34.5206896 213.629427,34.4214655 C213.613381,34.3933845 213.601227,34.3653035 213.592651,34.3370127 L212.885247,33.0819406 C212.810828,32.9082984 212.86044,32.7346563 212.934859,32.5858202 L215.465072,28.145543 C215.53949,27.9967069 215.663521,27.8726768 215.837163,27.8726768 C216.060417,27.8726768 216.134835,27.9719009 216.283671,28.195155 L216.630955,28.8153055 L214.127007,33.1811646 Z M222.782848,33.2059706 L216.953433,33.2059706 L216.134835,34.5951077 L222.013861,34.5951077 C222.212309,34.5951077 222.361145,34.5454956 222.460369,34.3966595 L223.254162,33.0075225 C223.154938,33.1563586 223.006102,33.2059706 222.782848,33.2059706 Z M215.04337,36.9516794 C215.142594,37.1005155 215.29143,37.1501275 215.465072,37.1501275 L220.599918,37.1501275 C220.823172,37.1501275 220.947202,37.0757095 221.046426,36.9268734 L221.815413,35.5377363 C221.691383,35.7113785 221.567353,35.7609905 221.294487,35.7609905 L215.41546,35.7609905 L215.068176,36.381141 C214.993758,36.5795891 214.944146,36.7532312 215.04337,36.9516794 Z M128.271919,35.091228 C128.346337,33.8261211 129.214548,33.3051947 130.430043,33.3051947 C131.372671,33.3051947 132.389718,33.6028669 132.389718,35.01681 L132.389718,37.844696 C132.389718,38.0927562 132.513748,38.2415923 132.761808,38.2415923 C132.836226,38.2415923 132.910644,38.2167863 132.960257,38.1919803 L132.960257,38.7377127 C132.81142,38.7625187 132.712196,38.7873247 132.538554,38.7873247 C131.868792,38.7873247 131.769568,38.4152344 131.769568,37.844696 L131.744762,37.844696 C131.298253,38.5392645 130.826939,38.9361608 129.785086,38.9361608 C128.792845,38.9361608 127.999053,38.4400404 127.999053,37.3733817 C127.999053,35.8602146 129.462608,35.8106025 130.876551,35.6617664 C131.422283,35.5873484 131.719956,35.5377363 131.719956,34.9423919 C131.719956,34.0493753 131.099805,33.8509271 130.330819,33.8509271 C129.51222,33.8509271 128.916876,34.2230174 128.89207,35.091228 L128.271919,35.091228 L128.271919,35.091228 Z M131.744762,35.8850206 C131.645538,36.0338567 131.347865,36.0834687 131.174223,36.1330808 C130.057952,36.3315289 128.693621,36.3315289 128.693621,37.3733817 C128.693621,38.0183381 129.26416,38.4400404 129.88431,38.4400404 C130.876551,38.4400404 131.769568,37.81989 131.744762,36.7532312 L131.744762,35.8850206 Z M133.704437,33.4540308 L134.349394,33.4540308 L134.349394,34.3718535 L134.3742,34.3718535 C134.62226,33.726897 135.316828,33.3051947 136.085815,33.3051947 C137.598982,33.3051947 138.04549,34.0989873 138.04549,35.3640942 L138.04549,38.8121307 L137.400534,38.8121307 L137.400534,35.4633183 C137.400534,34.5454956 137.102862,33.8509271 136.036203,33.8509271 C134.99435,33.8509271 134.3742,34.6447197 134.349394,35.6865725 L134.349394,38.8121307 L133.704437,38.8121307 L133.704437,33.4540308 Z M142.609798,36.3563349 C142.584991,37.869502 143.676456,38.3408164 145.015981,38.3408164 C145.784968,38.3408164 146.975657,37.9191141 146.975657,36.8276493 C146.975657,35.9842447 146.132252,35.6617664 145.46249,35.4881243 L143.825292,35.091228 C142.957082,34.8679739 142.163289,34.4710776 142.163289,33.3051947 C142.163289,32.5858202 142.634604,31.2214892 144.718309,31.2214892 C146.181864,31.2214892 147.471777,32.0152818 147.446971,33.5284489 L146.752403,33.5284489 C146.70279,32.3873721 145.784968,31.8168336 144.743115,31.8168336 C143.77568,31.8168336 142.882664,32.1889239 142.882664,33.2803887 C142.882664,33.9749572 143.40359,34.2726294 143.998935,34.4214655 L145.809774,34.8679739 C146.851627,35.1408401 147.719837,35.6121544 147.719837,36.8276493 C147.719837,37.3237696 147.521389,38.9361608 144.891951,38.9361608 C143.130724,38.9361608 141.865617,38.1423682 141.940035,36.3563349 L142.609798,36.3563349 L142.609798,36.3563349 Z M154.219014,33.627673 C153.970954,32.4865961 153.028325,31.8416397 151.961666,31.8416397 C150.001991,31.8416397 149.183392,33.4788368 149.183392,35.091228 C149.183392,36.7036192 150.001991,38.3408164 151.961666,38.3408164 C153.325997,38.3408164 154.194208,37.2741576 154.343044,35.9594386 L155.037613,35.9594386 C154.839164,37.770278 153.698088,38.9361608 151.961666,38.9361608 C149.629901,38.9361608 148.464018,37.1005155 148.464018,35.091228 C148.464018,33.0819406 149.629901,31.2462952 151.961666,31.2462952 C153.350803,31.2462952 154.73994,32.0896998 154.938388,33.652479 L154.219014,33.652479 L154.219014,33.627673 Z M158.063947,31.3951313 L158.857739,31.3951313 L161.760043,38.7873247 L161.015863,38.7873247 L160.122846,36.480365 L156.749228,36.480365 L155.856211,38.7873247 L155.112031,38.7873247 L158.063947,31.3951313 Z M156.947676,35.8850206 L159.84998,35.8850206 L158.411231,32.0896998 L156.947676,35.8850206 Z M168.953789,35.1408401 C168.780147,34.3470475 168.284026,33.8509271 167.440622,33.8509271 C166.175515,33.8509271 165.555364,34.9920039 165.555364,36.1330808 C165.555364,37.2741576 166.175515,38.4152344 167.440622,38.4152344 C168.25922,38.4152344 168.904177,37.795084 169.003401,36.9020673 L169.648357,36.9020673 C169.474715,38.1919803 168.63131,38.9857728 167.440622,38.9857728 C165.803424,38.9857728 164.910408,37.6958599 164.910408,36.1578868 C164.910408,34.6199137 165.803424,33.3300007 167.440622,33.3300007 C168.581698,33.3300007 169.449909,33.9501512 169.598745,35.1656461 L168.953789,35.1656461 L168.953789,35.1408401 Z M175.353741,36.1330808 C175.353741,37.6710539 174.460725,38.9609668 172.823527,38.9609668 C171.18633,38.9609668 170.293314,37.6710539 170.293314,36.1330808 C170.293314,34.5951077 171.18633,33.3051947 172.823527,33.3051947 C174.460725,33.3051947 175.353741,34.5951077 175.353741,36.1330808 Z M170.93827,36.1330808 C170.93827,37.2741576 171.558421,38.4152344 172.823527,38.4152344 C174.088634,38.4152344 174.708785,37.2741576 174.708785,36.1330808 C174.708785,34.9920039 174.088634,33.8509271 172.823527,33.8509271 C171.583227,33.8509271 170.93827,34.9920039 170.93827,36.1330808 Z M176.122728,33.4540308 L176.718072,33.4540308 L176.718072,34.3470475 L176.742878,34.3470475 C177.090163,33.702091 177.635895,33.2803887 178.504106,33.2803887 C179.198674,33.2803887 179.843631,33.627673 180.042079,34.3222415 C180.364557,33.627673 181.034319,33.2803887 181.753694,33.2803887 C182.919577,33.2803887 183.514921,33.9005392 183.514921,35.1656461 L183.514921,38.7873247 L182.869965,38.7873247 L182.869965,35.1904521 C182.869965,34.2974354 182.547486,33.8261211 181.604858,33.8261211 C180.463781,33.8261211 180.166109,34.7687498 180.166109,35.7609905 L180.166109,38.7873247 L179.521152,38.7873247 L179.521152,35.1656461 C179.521152,34.4462716 179.22348,33.8509271 178.404881,33.8509271 C177.263805,33.8509271 176.817296,34.6943317 176.817296,35.8106025 L176.817296,38.7873247 L176.122728,38.7873247 L176.122728,33.4540308 Z M184.755222,33.4540308 L185.350567,33.4540308 L185.350567,34.4710776 L185.375373,34.4710776 C185.673045,33.751703 186.417225,33.3051947 187.285436,33.3051947 C188.922633,33.3051947 189.69162,34.6199137 189.69162,36.1330808 C189.69162,37.6462479 188.922633,38.9609668 187.285436,38.9609668 C186.491643,38.9609668 185.697851,38.5640705 185.424985,37.795084 L185.400179,37.795084 L185.400179,40.7966122 L184.755222,40.7966122 L184.755222,33.4540308 Z M187.285436,33.8509271 C185.846687,33.8509271 185.400179,34.9175859 185.400179,36.1330808 C185.400179,37.2493516 185.896299,38.4152344 187.285436,38.4152344 C188.525737,38.4152344 189.046663,37.2493516 189.046663,36.1330808 C189.021857,35.01681 188.525737,33.8509271 187.285436,33.8509271 Z M190.634248,35.091228 C190.708666,33.8261211 191.576877,33.3051947 192.792372,33.3051947 C193.735001,33.3051947 194.752047,33.6028669 194.752047,35.01681 L194.752047,37.844696 C194.752047,38.0927562 194.876077,38.2415923 195.124138,38.2415923 C195.198556,38.2415923 195.272974,38.2167863 195.322586,38.1919803 L195.322586,38.7377127 C195.17375,38.7625187 195.074526,38.7873247 194.900883,38.7873247 C194.231121,38.7873247 194.131897,38.4152344 194.131897,37.844696 L194.107091,37.844696 C193.660583,38.5392645 193.189268,38.9361608 192.147415,38.9361608 C191.155175,38.9361608 190.361382,38.4400404 190.361382,37.3733817 C190.361382,35.8602146 191.824937,35.8106025 193.23888,35.6617664 C193.784613,35.5873484 194.082285,35.5377363 194.082285,34.9423919 C194.082285,34.0493753 193.462134,33.8509271 192.693148,33.8509271 C191.874549,33.8509271 191.279205,34.2230174 191.254399,35.091228 L190.634248,35.091228 L190.634248,35.091228 Z M194.131897,35.8850206 C194.032673,36.0338567 193.735001,36.0834687 193.561358,36.1330808 C192.445088,36.3315289 191.080757,36.3315289 191.080757,37.3733817 C191.080757,38.0183381 191.651295,38.4400404 192.271446,38.4400404 C193.263686,38.4400404 194.156703,37.81989 194.131897,36.7532312 L194.131897,35.8850206 Z M196.066766,33.4540308 L196.711723,33.4540308 L196.711723,34.3718535 L196.736529,34.3718535 C196.984589,33.726897 197.679157,33.3051947 198.448144,33.3051947 C199.961311,33.3051947 200.407819,34.0989873 200.407819,35.3640942 L200.407819,38.8121307 L199.762863,38.8121307 L199.762863,35.4633183 C199.762863,34.5454956 199.465191,33.8509271 198.398532,33.8509271 C197.356679,33.8509271 196.736529,34.6447197 196.711723,35.6865725 L196.711723,38.8121307 L196.066766,38.8121307 L196.066766,33.4540308 Z M201.052776,33.4540308 L201.747344,33.4540308 L203.508572,38.0183381 L205.145769,33.4540308 L205.790725,33.4540308 L203.45896,39.6307293 C203.086869,40.523746 202.863615,40.7966122 202.045017,40.7966122 C201.796956,40.7966122 201.64812,40.7966122 201.548896,40.7470001 L201.548896,40.2012677 C201.697732,40.2260737 201.846569,40.2508798 201.995405,40.2508798 C202.565943,40.2508798 202.714779,39.9035955 202.938033,39.4074752 L203.161287,38.7873247 L201.052776,33.4540308 Z M176.742878,2.62015045 L188.128841,2.62015045 L188.128841,3.63719719 L177.883955,3.63719719 L177.883955,11.8479891 L186.814122,11.8479891 L186.814122,12.8650359 L177.883955,12.8650359 L177.883955,21.5471422 L188.252871,21.5471422 L188.252871,22.5641889 L176.742878,22.5641889 L176.742878,2.62015045 Z M148.14154,2.49612036 L149.00975,2.49612036 L157.146124,22.613801 L155.881017,22.613801 L153.62367,17.0820589 L143.378784,17.0820589 L141.121436,22.613801 L139.905942,22.613801 L148.14154,2.49612036 Z M153.276385,16.0898182 L148.51363,4.10851153 L143.750874,16.0898182 L153.276385,16.0898182 Z M140.526092,8.92087902 C140.526092,12.5921697 137.822236,15.2216076 133.034675,15.2216076 L129.537026,15.2216076 L129.537026,22.613801 L128.395949,22.613801 L128.395949,2.62015045 L133.034675,2.62015045 C137.54937,2.62015045 140.526092,5.05114021 140.526092,8.92087902 Z M139.335403,8.92087902 C139.335403,5.49764854 136.755577,3.63719719 133.233123,3.63719719 L129.537026,3.63719719 L129.537026,14.2045609 L133.059481,14.2045609 C137.276504,14.2045609 139.335403,11.9224072 139.335403,8.92087902 Z M172.501049,8.92087902 C172.501049,12.5921697 169.797193,15.2216076 165.009632,15.2216076 L161.511983,15.2216076 L161.511983,22.613801 L160.370906,22.613801 L160.370906,2.62015045 L165.009632,2.62015045 C169.524327,2.62015045 172.501049,5.05114021 172.501049,8.92087902 Z M171.31036,8.92087902 C171.31036,5.49764854 168.705728,3.63719719 165.20808,3.63719719 L161.511983,3.63719719 L161.511983,14.2045609 L165.034438,14.2045609 C169.251461,14.2045609 171.31036,11.9224072 171.31036,8.92087902 Z M204.748873,8.37514663 C204.748873,13.6340224 199.837281,14.2293669 199.093101,14.3037849 L205.517859,22.613801 L204.004692,22.613801 L197.72877,14.427815 L193.809419,14.427815 L193.809419,22.613801 L192.668342,22.613801 L192.668342,2.62015045 L197.579933,2.62015045 C203.111675,2.62015045 204.748873,5.9937689 204.748873,8.37514663 Z M203.632602,8.52398274 C203.632602,5.69609668 201.64812,3.66200321 197.902412,3.66200321 L193.809419,3.66200321 L193.809419,13.3859623 L197.902412,13.3859623 C201.375254,13.3859623 203.632602,11.5751229 203.632602,8.52398274 Z M210.751929,8.59840079 C208.891478,8.59840079 207.576759,7.20926378 207.576759,5.34881243 C207.576759,3.38913701 209.040314,2.09922407 210.751929,2.09922407 C212.438738,2.09922407 213.927099,3.38913701 213.927099,5.34881243 C213.927099,7.30848785 212.463544,8.59840079 210.751929,8.59840079 Z M210.751929,2.6945685 C209.337986,2.6945685 208.246521,3.7860333 208.246521,5.37361845 C208.246521,6.83717351 209.18915,8.05266839 210.751929,8.05266839 C212.141066,8.05266839 213.232531,6.9612036 213.232531,5.37361845 C213.232531,3.7860333 212.141066,2.6945685 210.751929,2.6945685 L210.751929,2.6945685 Z M210.106972,7.20926378 L209.511628,7.20926378 L209.511628,3.63719719 L210.875959,3.63719719 C211.74417,3.63719719 212.190678,3.9348694 212.190678,4.67904994 C212.190678,5.32400641 211.793782,5.59687261 211.248049,5.67129066 L212.24029,7.2340698 L211.595334,7.2340698 L210.677511,5.69609668 L210.106972,5.69609668 L210.106972,7.20926378 L210.106972,7.20926378 Z M210.776735,5.1751703 C211.223243,5.1751703 211.62014,5.12555827 211.62014,4.60463189 C211.62014,4.18292958 211.198437,4.10851153 210.851153,4.10851153 L210.106972,4.10851153 L210.106972,5.15036429 L210.776735,5.15036429 L210.776735,5.1751703 Z M61.5685367,2.62015045 L61.5685367,15.0975775 C61.5685367,18.3223598 59.7576974,20.0835871 56.9298113,20.0835871 C53.6554169,20.0835871 52.315892,17.9998816 52.315892,15.0975775 L52.315892,2.62015045 L48.8182434,2.62015045 L48.8182434,14.8247113 C48.8182434,20.0835871 51.4724874,23.1099213 56.433691,23.1099213 C59.7328914,23.1099213 61.4445066,20.9269917 61.6677608,20.6045135 L61.6677608,22.613801 L65.0413792,22.613801 L65.0413792,2.62015045 L61.5685367,2.62015045 Z M119.391365,2.62015045 L119.391365,15.0975775 C119.391365,18.3223598 117.580525,20.0835871 114.752639,20.0835871 C111.478245,20.0835871 110.13872,17.9998816 110.13872,15.0975775 L110.13872,2.62015045 L106.641071,2.62015045 L106.641071,14.8247113 C106.641071,20.0835871 109.295315,23.1099213 114.256519,23.1099213 C117.555719,23.1099213 119.267335,20.9269917 119.490589,20.6045135 L119.490589,22.613801 L122.864207,22.613801 L122.864207,2.62015045 L119.391365,2.62015045 Z M79.2056155,17.5285673 C79.2056155,19.0417344 77.7420604,20.0835871 75.4847128,20.0835871 C72.2103184,20.0835871 70.5731212,18.0742997 70.3498671,17.8014335 L67.8940713,20.0587811 C68.1421315,20.3316473 70.300255,23.1099213 75.1870406,23.1099213 C80.3714983,23.1099213 82.8024881,20.5052894 82.8024881,17.2557011 C82.8024881,13.4851863 79.6025118,11.9968253 76.4769535,10.7317183 C73.8723216,9.66505956 72.0614823,8.87126699 72.0614823,7.30848785 C72.0614823,5.91935084 73.3265892,5.15036429 75.2366526,5.15036429 C78.2877928,5.15036429 80.2226622,7.28368183 80.4707224,7.53174202 L82.8024881,5.1751703 C82.60404,4.95191614 80.0986321,2.12403009 75.6087429,2.12403009 C70.3746731,2.12403009 68.3901916,4.85269207 68.3901916,7.75499618 C68.3901916,11.624735 72.1607064,12.7161998 74.8645623,13.8324706 C77.5684183,14.9487414 79.2056155,15.9657881 79.2056155,17.5285673 Z M11.8324706,2.62015045 L7.66505956,17.5781793 L3.57206659,2.62015045 L0.049612036,2.62015045 L5.55654803,22.5889949 L9.40148082,22.5889949 L13.5192798,8.07747441 L17.6122728,22.5889949 L21.5812357,22.5889949 L27.0881717,2.62015045 L23.7641652,2.62015045 L19.7455903,17.5781793 L15.4789552,2.62015045 L11.8324706,2.62015045 Z M89.2520528,16.2882664 C89.2520528,14.1797548 90.6659958,12.6169757 93.9403902,12.6169757 C96.8178883,12.6169757 99.0256239,13.7084405 99.199266,13.7580525 L99.199266,14.403009 C99.199266,16.9580289 97.810129,20.0339751 93.8907781,20.0339751 C90.88925,20.0339751 89.2520528,18.1487177 89.2520528,16.2882664 Z M99.8442225,20.5797075 C100.166701,21.7455903 100.960493,22.663413 101.506226,22.9858912 C101.555838,22.9362792 104.358918,20.5549015 104.358918,20.5549015 C103.887603,20.0587811 102.721721,18.7192561 102.721721,15.5688918 L102.721721,10.210792 C102.721721,5.84493279 99.7449984,2.12403009 93.9900022,2.12403009 C89.2768588,2.12403009 87.0443172,4.95191614 86.6474209,5.42323048 L89.0039926,7.53174202 C89.3264708,7.15965174 90.8396379,5.19997632 93.8907781,5.19997632 C97.785323,5.19997632 99.248878,7.85422025 99.248878,10.0123438 L99.248878,10.6573003 C99.1000419,10.6076882 96.9667244,9.59064151 93.8163601,9.59064151 C88.160588,9.59064151 85.6551802,12.7658118 85.6551802,15.9657881 C85.6551802,19.8355269 88.4334542,23.0851153 93.8659721,23.0851153 C97.9341591,23.1099213 99.5465503,20.9269917 99.8442225,20.5797075 Z M31.4292248,16.2882664 C31.4292248,14.1797548 32.8431678,12.6169757 36.1175622,12.6169757 C38.9950603,12.6169757 41.2027959,13.7084405 41.376438,13.7580525 L41.376438,14.403009 C41.376438,16.9332228 39.987301,20.0339751 36.0679502,20.0339751 C33.066422,20.0339751 31.4292248,18.1487177 31.4292248,16.2882664 Z M42.0213945,20.5797075 C42.3438727,21.7455903 43.1376653,22.663413 43.6833977,22.9858912 C43.7330097,22.9362792 46.5360898,20.5549015 46.5360898,20.5549015 C46.0647754,20.0587811 44.8988926,18.7192561 44.8988926,15.5688918 L44.8988926,10.210792 C44.8988926,5.84493279 41.9221704,2.12403009 36.1671743,2.12403009 C31.4540308,2.12403009 29.2214892,4.95191614 28.8245929,5.42323048 L31.1811646,7.53174202 C31.5036429,7.15965174 33.01681,5.19997632 36.0431442,5.19997632 C39.937689,5.19997632 41.401244,7.85422025 41.401244,10.0123438 L41.401244,10.6573003 C41.2524079,10.6076882 39.1190904,9.59064151 35.9687261,9.59064151 C30.312954,9.59064151 27.8075462,12.7658118 27.8075462,15.9657881 C27.8075462,19.8355269 30.5858202,23.0851153 36.0183381,23.0851153 C40.1113311,23.1099213 41.7237223,20.9269917 42.0213945,20.5797075 L42.0213945,20.5797075 Z" id="Wausau-Paper" sketch:type="MSShapeGroup"></path>
        </g>
    </g>
</svg>